<mxfile host="app.diagrams.net" modified="2024-04-05T23:50:25.523Z" agent="Mozilla/5.0 (Macintosh; Intel Mac OS X 10_15_7) AppleWebKit/605.1.15 (KHTML, like Gecko) Version/16.4 Safari/605.1.15" etag="XpIFCVqKm9DbrdeBOm_y" version="24.2.2" type="github">
  <diagram id="C5RBs43oDa-KdzZeNtuy" name="Page-1">
    <mxGraphModel dx="619" dy="353" grid="1" gridSize="10" guides="1" tooltips="1" connect="1" arrows="1" fold="1" page="1" pageScale="1" pageWidth="827" pageHeight="1169" math="0" shadow="0">
      <root>
        <mxCell id="WIyWlLk6GJQsqaUBKTNV-0" />
        <mxCell id="WIyWlLk6GJQsqaUBKTNV-1" parent="WIyWlLk6GJQsqaUBKTNV-0" />
        <mxCell id="WIyWlLk6GJQsqaUBKTNV-2" value="" style="rounded=0;html=1;jettySize=auto;orthogonalLoop=1;fontSize=11;endArrow=block;endFill=0;endSize=8;strokeWidth=1;shadow=0;labelBackgroundColor=none;edgeStyle=orthogonalEdgeStyle;" parent="WIyWlLk6GJQsqaUBKTNV-1" source="WIyWlLk6GJQsqaUBKTNV-3" target="WIyWlLk6GJQsqaUBKTNV-6" edge="1">
          <mxGeometry relative="1" as="geometry" />
        </mxCell>
        <mxCell id="WIyWlLk6GJQsqaUBKTNV-3" value="Lamp doesn&#39;t work" style="rounded=1;whiteSpace=wrap;html=1;fontSize=12;glass=0;strokeWidth=1;shadow=0;" parent="WIyWlLk6GJQsqaUBKTNV-1" vertex="1">
          <mxGeometry x="160" y="80" width="120" height="40" as="geometry" />
        </mxCell>
        <mxCell id="WIyWlLk6GJQsqaUBKTNV-4" value="Yes" style="rounded=0;html=1;jettySize=auto;orthogonalLoop=1;fontSize=11;endArrow=block;endFill=0;endSize=8;strokeWidth=1;shadow=0;labelBackgroundColor=none;edgeStyle=orthogonalEdgeStyle;" parent="WIyWlLk6GJQsqaUBKTNV-1" source="WIyWlLk6GJQsqaUBKTNV-6" target="WIyWlLk6GJQsqaUBKTNV-10" edge="1">
          <mxGeometry y="20" relative="1" as="geometry">
            <mxPoint as="offset" />
          </mxGeometry>
        </mxCell>
        <mxCell id="WIyWlLk6GJQsqaUBKTNV-5" value="No" style="edgeStyle=orthogonalEdgeStyle;rounded=0;html=1;jettySize=auto;orthogonalLoop=1;fontSize=11;endArrow=block;endFill=0;endSize=8;strokeWidth=1;shadow=0;labelBackgroundColor=none;" parent="WIyWlLk6GJQsqaUBKTNV-1" source="WIyWlLk6GJQsqaUBKTNV-6" target="WIyWlLk6GJQsqaUBKTNV-7" edge="1">
          <mxGeometry y="10" relative="1" as="geometry">
            <mxPoint as="offset" />
          </mxGeometry>
        </mxCell>
        <mxCell id="WIyWlLk6GJQsqaUBKTNV-6" value="Lamp&lt;br&gt;plugged in?" style="rhombus;whiteSpace=wrap;html=1;shadow=0;fontFamily=Helvetica;fontSize=12;align=center;strokeWidth=1;spacing=6;spacingTop=-4;" parent="WIyWlLk6GJQsqaUBKTNV-1" vertex="1">
          <mxGeometry x="170" y="170" width="100" height="80" as="geometry" />
        </mxCell>
        <mxCell id="WIyWlLk6GJQsqaUBKTNV-7" value="Plug in lamp" style="rounded=1;whiteSpace=wrap;html=1;fontSize=12;glass=0;strokeWidth=1;shadow=0;" parent="WIyWlLk6GJQsqaUBKTNV-1" vertex="1">
          <mxGeometry x="320" y="190" width="120" height="40" as="geometry" />
        </mxCell>
        <mxCell id="WIyWlLk6GJQsqaUBKTNV-9" value="Yes" style="edgeStyle=orthogonalEdgeStyle;rounded=0;html=1;jettySize=auto;orthogonalLoop=1;fontSize=11;endArrow=block;endFill=0;endSize=8;strokeWidth=1;shadow=0;labelBackgroundColor=none;" parent="WIyWlLk6GJQsqaUBKTNV-1" source="WIyWlLk6GJQsqaUBKTNV-10" target="WIyWlLk6GJQsqaUBKTNV-12" edge="1">
          <mxGeometry y="10" relative="1" as="geometry">
            <mxPoint as="offset" />
          </mxGeometry>
        </mxCell>
        <mxCell id="WIyWlLk6GJQsqaUBKTNV-10" value="Bulb&lt;br&gt;burned out?" style="rhombus;whiteSpace=wrap;html=1;shadow=0;fontFamily=Helvetica;fontSize=12;align=center;strokeWidth=1;spacing=6;spacingTop=-4;" parent="WIyWlLk6GJQsqaUBKTNV-1" vertex="1">
          <mxGeometry x="170" y="290" width="100" height="80" as="geometry" />
        </mxCell>
        <mxCell id="WIyWlLk6GJQsqaUBKTNV-11" value="Find&lt;font color=&quot;#ff3333&quot;&gt; k-nearest neighbors&lt;/font&gt;" style="rounded=1;whiteSpace=wrap;html=1;fontSize=12;glass=0;strokeWidth=1;shadow=0;" parent="WIyWlLk6GJQsqaUBKTNV-1" vertex="1">
          <mxGeometry x="370" y="640" width="120" height="90" as="geometry" />
        </mxCell>
        <mxCell id="WIyWlLk6GJQsqaUBKTNV-12" value="Replace Bulb" style="rounded=1;whiteSpace=wrap;html=1;fontSize=12;glass=0;strokeWidth=1;shadow=0;" parent="WIyWlLk6GJQsqaUBKTNV-1" vertex="1">
          <mxGeometry x="320" y="310" width="120" height="40" as="geometry" />
        </mxCell>
        <mxCell id="sJofw-jmUaGOBElZEfz2-0" value="" style="shape=image;verticalLabelPosition=bottom;labelBackgroundColor=default;verticalAlign=top;aspect=fixed;imageAspect=0;image=data:image/webp,UklGRkQUAABXRUJQVlA4IDgUAADQVgCdASo0AcMAPpFCnEslo6KhpTK62LASCWdu4W8hEZX6yQZ3indG/CPcLsAp3Xx7/Zu2L/Kf2nvL/UP438s/Ws/qvFR1j5ofST9j5Af4jwB9XvqBfjv82/wvopPMOQFAH4//Uv9f/d/79+0nOf4gHzgfHH/Q/2PiKeo+wB+oP9f9tf0p/xn/N/wX+W/eX2Tflv9+/73+F/1XyC/yj+of8H+//5X3oPX7+zPsU/qr/4fz/LIxPzlKS4WrS3ek37W8Wn4bFvnKW+tMkeHoDVTaq/a1jKm+BcPj1p+ujGH1pkqqLFvm4JkbTJKAeFe/h0jYsy7cBGtX/C6Bkpb6uOaXECBWwp7WYBskRkRH6xgNrGUbJHQl7606ttgJid5sGsF/Hvq38c8NipVHHVkLTJWSUDgmVQlEkKlhKTJDYOUcN6tfxeWgZYeSmiUfrJlJfLp/3FUE3M8rpq7lA4pqZmnJJXWEwq5t+79F3p3hgd74o7vCEAuPWM4GmDqDzhBiv9O9fznTDysnTFFsHxqwpQXpeQDVHOU6fosg9R4ppktPMghFMKF5YN2pCJ85LAFKYZWh2B9Z9fil+5Vdgq8TPS3oG2Xij+vN7OU14k2aSfGn1e1f/tJ+nzRpj+y1ceQjaTAGLRuVY5m5uuRKRqEwSqSFGKSOwIvTstOOm6MumCim/RVKo4Mh9X8dKpzfyTQzq9JhOE6SLp8+VO02vu0XdGzmYyoGPorRYGsVr0UAXzq4FiaR/K5VsIjavm2zP7CSGlhK95yNeGZNeXRbIWl5AOlYpkvY2ZXjJ8bJBv4c/4gRAzGqkjlRhcc7VK/yWiyGkwwjO1E0crC6nAdINsqLFvnKW+r94GwkPAHQeVXPe22+cT/zrT9Z/WmSqosW+cpQfnyFXZJr9xLX9P6FceX475KW+tMlVRXWpVeEUWLfOSQAAP7+1iSk9yX0dZ1b2gACW7T/NeKTK788ePMmL35ZPvh017o6iqJl3Kx60caiVlQr3qBd9U4cAdFEycaOXbvudt0wTTgj6n5sKa11p5UhflMjxUVFBbvMxfDRxBHIj3sUA7DRgzU8rsvhAGo4+UYh1+TTsc6O33fd5n+JiJ64WxJoQU7sVYKz+29+K+MtbiQlelEsQNmB3Sh6tiHFTszE4ZOQlQkWyJIL+m9zN5KbT6niljiYAvpOdiIlJUhdNLzuJC7NkRX0frjsmDn/ziPfEm6LC3R1CSjezzSSykF21ojsR2DxRftO4CYdkW+AFIZIXB5xzOLO2dBH9EFRZeRmao2dlk3InRxc86XQSVM4ZYK132qAxmsmb6ad8DY6fl+QwrntWpzdRIRG3fuxqIDq2Ob72M+BNBgFDrm4AprmgI7vHLlanGeNjLXLfb/OgC/eq1kwy1Nbi5bBsbDdqyN5jU4a2Y43RWIJXRTx/mU5MVuaxpXPYZ0EdLhcpv58HnzmwwuCXi9uaEYgWiNz1m4wDKRJQnsBjbCXwJdL/GmyLy+zP9sfyGkTzgOabY7hqYP9ArF5mH7cBUo+yqb570oLnmMu9xCv0+CcZZeoSq/BBuHCrRt8e85PiCrKIcQ/cl2pMDLfHVeAvmip7ZBIYBDD8ZvOmg7uAA1OGAOpn/hb17Q8kI21/6COh9Ne+jU3N3//sLxWn5qkHIBCbmBzeZprYsKCIBwHmBALkvgZtmfpSbQ9gZw3RIimPkgvcu7LaO7wKzR5LT0BSe8K+JYxPG4kKJkAxSZqKUh0uHN5gFdoh6lbK9pGbm+QkEZG3dNQFkMVoxZ0Ol7oF/dDGXAQGAzJI1uBjZZkfiuT46cyCagvze40H5QX6MS9ku9GZmpFqizb+8MuIMOaoPTzxUT0C+DI34L73uYPcLkqBU0nZn2OQsb077NoOQ7RYcnx39baAM4TgAaCgJL2aInHrL8DLZqA5KIZ2KnqM3vXiXfI5GLR8EVceSZYzYJLHPHGK3z34lZTYEPqlpF2bW+e+KNHp8dOg9cO3HP8nc+ll3jPKOu6Ry6A1HpZv2eygF3sK2xHbiEv/KklGfd7HXG0hja8BQPyReSQ097YeErlle4m4yFuCJesJBTAt+Hp7XB9ED57fKmeQKoClYr779Cyf3BjRYpUx76MVDjzhUOWPnhDZK5uszQjqZ7f4BuQXd7NYOV33Z7d/CT5fLAc0N6o23hx/B3ln3jU4Jqew3DDKd8Lkd+w28a6gvSgKf4A/yTfVsA6yDeoVtIERM6q9tQk4lpSODhU1RzF0+C6TmfigzSsiL3CyFsfWIC+ASUqCz6KT2insqd0oVsx5RLIrtIPrpC+o3lYYg7dOWRhZh0mCQJkWV1T/RvFfbFqHv2NR7hCisKz3Hy83f5D5fAqcyZqvYz7buuw4OxythPOM7RaiVeUGpTjRZJfJ/1o6YnAI682nAV7jDOJ9jhomm4xVOPWIS+ySsKK+rrMd7yoXlvOQCfolUfMpE6JBNSix3qA1xI8tb+sXjchckRedo8sh4nBYnGtu2NxJehkO8REA0e3r7UsLezQqQI2HHRCbUQAlhi64CYmtXHCGPvNAFtqemckx/x3PIDhZk/Bce3hvVjMAwpkMRToQ/ggZHpSoaUPZ85E7lOAXVu9UdwJbDJFVPKlboyHNSIhThWyzTMqv/41Scm4hl2zUaie4KkfMRl4WPlAbRbapZlIBlfXmYDpI4fyuV9KeKBZtBppKiD2/3pSAWREoqiLfI2KDdCRCaMnV7XxbbkHAs11PHHgy6+YBpd0C+hPdP4QM+fyw0+KQYOF25rwZevEhk2and19cOcpmWqo6DPb9/NFIS1znPVCsS5mR8ILWvvAGpyNn+cdv4kjpsvZdIN1V3BCTIrWdEZ81tQjyWb5Azb9PW4SIvvIHLgnS0h6dCIMot3Ww4KNO1tjH6oC32yB+gBF6ThPvncN09hm3rNVAWn+c31WSyVXjzNMRPlb9db5F27+b7c1avfo/Pv3KdG5z/8V0y9Lv65ZhJDW3EYOQTpzl+Pb73yZytf/LzyFA+YzgiSwovfCwecPyGfP4DMtWuPA0Ci/cfD00CKyrcKSLFrnZPKWtQQzw60UkZFfvEP1hnGFaSepmYtSCaeB07EjpB9Wu+J9FxpEY+89+ZVwjdbr1z0+NsqZnsejK+jALYMFe9YBkrxK5a+xqzQY5DFbidWXJp4ppyzHmMdeu68owjjjBUqR4dSgncoLCFYksqrFeOohbRMx5e1YePhwNMEOqz2hJDR/Z4loKJjApndEMtwiCH2OQppIxSORgNJP/v8WJKze1nwbAS8+r1scx39MG/yWhv5b43stQOZBDiaRoEXkkKknh/b4Dw2Wh3zwUQQn1rtoExwkbnyVhoIeT5WPJ2esqgByg/GHB8a2QcjeneZv4V7xkLEnF1dGmqyRaNvpGXkqBF7wV/gMUQ0TQuted3fcJs0yHvD0hVu7poLKX0rvrqgegK0VvhXFatbgqA4DCso9U7V9NSH9742SBfHEoZXC1BkD+9a/lF2OL6Mi4mAz/c/ltwjB+XawILpQxwOqLJ02CkBKPFtOVUTx5FQKjwITgO/bwGeSFcmpaFv9OaicpJ8B78DV2T9vdvXM6ScqwHpZEUtDXZeEhHyQrmxWFtoIrHTILvpuxZwpAG9fvwLvzCDn1Se1vzb2ZCUdryMpa0GFbvdzqmYHwsYm5dJMuAvsJglErNPqTRAuLFIIQ1A+qP7LeCbxdYVdWlKseo4raBom0w1muYVgel1umf+04ES8/EAOsfC4otldPUTl4wgikpjxZ6PtS9uG7WOQL6MOfsEq9alpaH0ums98lW7Knsdv5YDIofF8qi7Qu/TEoTOsibUXRaYveDxrwwiXc1VM18hUUZAh6Et9MXSJB8Ba1Do3ozROa+MvkUun2b61VG6BAKvOjznavSInisY/SMl7ofip3cb04pO0AWQFZod4LoB4CmIZShJxFIbHRirRSS8wgyEOAOds6Vr/3IHlMZgG7fQCPqulmiZQRk1rptMjewufunuM7X/yi1ni9jdWBTimxfJHABDpCyZv4YYkDZpYXxdtmYyF0eTVYD34S891R+f87fyH4F6igsLXxIy3T9DVky+YhRwiZCv3dG5TgbmJWg6MC7ZncvgxdEnH4/da3ly4K5h36Fa7Ipi+uLLL1CShgcF2ZOXFTTcEYdxYvObBMfm2l6OUe/3SrhTljstt78XhJwOG18GPIZoGMFu3jYJw/UTH06B3ZEkfFi1kOfDlhHPB8QDYrRrdnBH4Dv7mIVXjVhWIW8q+pNe96nsjz+XwKNGN6szhEJbSj+7tyjPHy8sYFt8yWDh/+6STg23jRxrJVItWsXi9HukZHNw4eHpotY1qAGhrYorfzQg0gqEBiuVRLRMU5upj6fAkvLfo07QL+Vd+QSjuu7TDwVtoWE0ygsvAb27p1vNXOEeoHKF8JnRRvdZ7I0x3NYTozK6+w6kKa3JiK7jPZlcjGzgUX22RLzBcffnRjgqNfWIKvKOCMA4g9g7RpoGFxZCnZx4R//DvSe/SnjDR9vv/bl2cUuNhrVKvoJazKWm8uFoaJPb3XjDhjxaua6RFF4eZWKjqXwcEJbCAPzjS30o2RIdtBJNqAFxJdatTfxEnFss+2hxMdJ/TxLB6c3rRZnmkNnb30SCNS8e33jah/TaOw+YADnxAKPfrRt26b4+7bWfoMiSsC7Dfyr06bo+z3GvXUQvuJLrr96ROmjjtQHCO3YFyeb1gLMkfn0xq607+I+SWLD1qbLjxgvbd9n+GV34FW1hydcUxWB6uni4/g3JUKA9noyHj1fxw+SylDgEi3Lg+RWVssnBqQqqNRl/+roVCnm8iZ3X11pNxvUl9GOUKg1Mq7ijSrnv1jO947hTWGWlTCNjELwi8RcVsgWZ77Cfg72LHSJreAGj8nbVWif67djkjJ5MGLUQhmn3x8/bHS0D9MPBogLiHK7r2r5XUlJSM+0r5TAXl7DX3dof0NJ1TT4sPmdJ6LL0499UacMBjsqoaCdMHkAzThHWeAff+JBmVHKulguuV7WK+mx9fvH0juKx7eSRKurZ0MNl2POt1SkqN7/iLTsUqV+36yWoNpalflEhUSuVhaEU6w5Ooq1DvgllloD/A8MLbF82scES1XxsSpcaAneW1kCg7JZNH5+D+q/rpRaNlD3IJKI/NdWJ0ukyQd+my9YFfoiJW7KBUoejKxIkuyN50b4oguO5wKfcGVqlzMjsis8PZghUXNqaCxBS+HA252cE8Ci/a6IKYGKBPOkuK4QVJUw3VgoqoVwDYqXCWm8I9nsw39RVCetLsIXiRJYCCq0r9SCuUlQLyfs5I5eIsRu10GDJhRmXFy51mgAN+IeObkE22PlZ81bqs7Plm5p3PhkW4dg7q1lEG0x3xNWfC6jauFQr/o19lQcVXGNLk3C+qiOzdw9WwihpSK89AEsOcQAaXOuM2MMqplqe+tdWXqq6ZV3q09hpaqFyIk2fVsdS7/HwQPr19KhTDCQYjXb0hYMcmNcYI/vQvuFgzKUx8loZAcPp+2bp40mttM0iexXbccfCctwhifebCHhaEMUQjgymp5ujmCj/FlPs1fznpUsMvyQS/z6ZrtdBalZYJYp83gGLwJBrIxq3k41DAJ/4Myz+2S2kmOBI87fjVBd3X4VeGdw6ZCa4ip2UkaKBinQuAP6d7YpPwklstnL5I6xiplSWP8FViMt8eoQXxoWeWd5KdF1klFIt/XjZnScFKd7M4NQkyLqN8lhaUgA2rmP8/DzoTB9KfOsfcCdS/QE42JTjyTBYC159ygPfE0bE8PuTGEPl2DZ2QxeQBYWhx9rNPlGwNJZi7d4n2WS2kR0oqvXrdoTGrhUiapMvKHYQYjL/MwDO8395Zv5XQ73X/ZSMFNuc64tiiDuTUftlZ5tnDzauewPsWHS/sAnyPuqj63IzzRWigjO/qgcKKYhhBnqk4HTuyn7ALnK64Us0XdBhBFvR3X/dl8LKunVb7gEbX8xQYwZX1+1FeS71w1V2LCTxOisOSI3J+bZGweOQft/8/urj6rERHgW8WddJUW1Cesaks+QE31B9PoXs3HBkT0FDzPq2Dxyr9nnZQNGdKBX9NgKK01301fE3nSPLAXMF3MAQxNW+EcqpTXbsTkYEMLh3ph3nEzWuCpAkp5fLu5uv3mg1kHRtfSwH6Puj12q1KXyC6RLrhAtcQKIEM2APZO7O1uF0RBGKPSxKTqbIpe7H7U2ZAtL3eEXwHtMZvtJkirfqQZ8yuqf6Nsi0q9AAuzgYPrSZvLpkliVXD7mfJk8DG739zWr0IAeqDYth9L3cB+Tg0GEskw+itE3Yy+QA2jCH9eZV/zZYFYx/KNP17RNdANVCAxPwRt3G3pt1gTELGy/UEP5T6FM4rLURCuXDTRC6Z5SwnZuQ/N1aY8MQF5sJ32bVgDNGBrOvjDJyP5ht/G3x6nfdmTrePvRU2rWOdQMlIek7ejAUYiHcD5A1HCiQXgJa7uq0FzVK4um8nhc0FFoJops2/JU8y6Ak15HVEtnnQXV1iWRM7G4Ew7lF8oJR9M92MrpHICjbVk2Ssen9MRlu0yC783/DtF8/E02B5MDjhzmNvVtbBiKDfamv9jJD+9EJlsJ2yxUPBE0UaGs2DgDlq4KWSWpPwmC+PSt1ftRpUQIMk2VVa0CIAdiExj0wafOpRbIUK8ICSUouzEjAOK+iDgMGMcAIbPqVwWQECl4TMKxZF2mYmgIyS/0Ak5drEnhdkNZrDrsh7NhiswPJ01tAGqthfR0OFt+Hw3cpufJqkLPg9KujacI+izTIQ+C+W5j9TZ9/VN6xf6TYEcB3phZz+N8U75qksYQq2eYLxcetNM7IXq7I9L787pflXAEiCowmgLHz7q4zEQOe9Bm370FVvX10fFQRilmKfgF5rVrRzH81VgnrgAAAA;" vertex="1" parent="WIyWlLk6GJQsqaUBKTNV-1">
          <mxGeometry x="20" y="640" width="98.72" height="62.5" as="geometry" />
        </mxCell>
        <mxCell id="sJofw-jmUaGOBElZEfz2-1" value="" style="shape=image;verticalLabelPosition=bottom;labelBackgroundColor=default;verticalAlign=top;aspect=fixed;imageAspect=0;image=data:image/webp,UklGRkQUAABXRUJQVlA4IDgUAADQVgCdASo0AcMAPpFCnEslo6KhpTK62LASCWdu4W8hEZX6yQZ3indG/CPcLsAp3Xx7/Zu2L/Kf2nvL/UP438s/Ws/qvFR1j5ofST9j5Af4jwB9XvqBfjv82/wvopPMOQFAH4//Uv9f/d/79+0nOf4gHzgfHH/Q/2PiKeo+wB+oP9f9tf0p/xn/N/wX+W/eX2Tflv9+/73+F/1XyC/yj+of8H+//5X3oPX7+zPsU/qr/4fz/LIxPzlKS4WrS3ek37W8Wn4bFvnKW+tMkeHoDVTaq/a1jKm+BcPj1p+ujGH1pkqqLFvm4JkbTJKAeFe/h0jYsy7cBGtX/C6Bkpb6uOaXECBWwp7WYBskRkRH6xgNrGUbJHQl7606ttgJid5sGsF/Hvq38c8NipVHHVkLTJWSUDgmVQlEkKlhKTJDYOUcN6tfxeWgZYeSmiUfrJlJfLp/3FUE3M8rpq7lA4pqZmnJJXWEwq5t+79F3p3hgd74o7vCEAuPWM4GmDqDzhBiv9O9fznTDysnTFFsHxqwpQXpeQDVHOU6fosg9R4ppktPMghFMKF5YN2pCJ85LAFKYZWh2B9Z9fil+5Vdgq8TPS3oG2Xij+vN7OU14k2aSfGn1e1f/tJ+nzRpj+y1ceQjaTAGLRuVY5m5uuRKRqEwSqSFGKSOwIvTstOOm6MumCim/RVKo4Mh9X8dKpzfyTQzq9JhOE6SLp8+VO02vu0XdGzmYyoGPorRYGsVr0UAXzq4FiaR/K5VsIjavm2zP7CSGlhK95yNeGZNeXRbIWl5AOlYpkvY2ZXjJ8bJBv4c/4gRAzGqkjlRhcc7VK/yWiyGkwwjO1E0crC6nAdINsqLFvnKW+r94GwkPAHQeVXPe22+cT/zrT9Z/WmSqosW+cpQfnyFXZJr9xLX9P6FceX475KW+tMlVRXWpVeEUWLfOSQAAP7+1iSk9yX0dZ1b2gACW7T/NeKTK788ePMmL35ZPvh017o6iqJl3Kx60caiVlQr3qBd9U4cAdFEycaOXbvudt0wTTgj6n5sKa11p5UhflMjxUVFBbvMxfDRxBHIj3sUA7DRgzU8rsvhAGo4+UYh1+TTsc6O33fd5n+JiJ64WxJoQU7sVYKz+29+K+MtbiQlelEsQNmB3Sh6tiHFTszE4ZOQlQkWyJIL+m9zN5KbT6niljiYAvpOdiIlJUhdNLzuJC7NkRX0frjsmDn/ziPfEm6LC3R1CSjezzSSykF21ojsR2DxRftO4CYdkW+AFIZIXB5xzOLO2dBH9EFRZeRmao2dlk3InRxc86XQSVM4ZYK132qAxmsmb6ad8DY6fl+QwrntWpzdRIRG3fuxqIDq2Ob72M+BNBgFDrm4AprmgI7vHLlanGeNjLXLfb/OgC/eq1kwy1Nbi5bBsbDdqyN5jU4a2Y43RWIJXRTx/mU5MVuaxpXPYZ0EdLhcpv58HnzmwwuCXi9uaEYgWiNz1m4wDKRJQnsBjbCXwJdL/GmyLy+zP9sfyGkTzgOabY7hqYP9ArF5mH7cBUo+yqb570oLnmMu9xCv0+CcZZeoSq/BBuHCrRt8e85PiCrKIcQ/cl2pMDLfHVeAvmip7ZBIYBDD8ZvOmg7uAA1OGAOpn/hb17Q8kI21/6COh9Ne+jU3N3//sLxWn5qkHIBCbmBzeZprYsKCIBwHmBALkvgZtmfpSbQ9gZw3RIimPkgvcu7LaO7wKzR5LT0BSe8K+JYxPG4kKJkAxSZqKUh0uHN5gFdoh6lbK9pGbm+QkEZG3dNQFkMVoxZ0Ol7oF/dDGXAQGAzJI1uBjZZkfiuT46cyCagvze40H5QX6MS9ku9GZmpFqizb+8MuIMOaoPTzxUT0C+DI34L73uYPcLkqBU0nZn2OQsb077NoOQ7RYcnx39baAM4TgAaCgJL2aInHrL8DLZqA5KIZ2KnqM3vXiXfI5GLR8EVceSZYzYJLHPHGK3z34lZTYEPqlpF2bW+e+KNHp8dOg9cO3HP8nc+ll3jPKOu6Ry6A1HpZv2eygF3sK2xHbiEv/KklGfd7HXG0hja8BQPyReSQ097YeErlle4m4yFuCJesJBTAt+Hp7XB9ED57fKmeQKoClYr779Cyf3BjRYpUx76MVDjzhUOWPnhDZK5uszQjqZ7f4BuQXd7NYOV33Z7d/CT5fLAc0N6o23hx/B3ln3jU4Jqew3DDKd8Lkd+w28a6gvSgKf4A/yTfVsA6yDeoVtIERM6q9tQk4lpSODhU1RzF0+C6TmfigzSsiL3CyFsfWIC+ASUqCz6KT2insqd0oVsx5RLIrtIPrpC+o3lYYg7dOWRhZh0mCQJkWV1T/RvFfbFqHv2NR7hCisKz3Hy83f5D5fAqcyZqvYz7buuw4OxythPOM7RaiVeUGpTjRZJfJ/1o6YnAI682nAV7jDOJ9jhomm4xVOPWIS+ySsKK+rrMd7yoXlvOQCfolUfMpE6JBNSix3qA1xI8tb+sXjchckRedo8sh4nBYnGtu2NxJehkO8REA0e3r7UsLezQqQI2HHRCbUQAlhi64CYmtXHCGPvNAFtqemckx/x3PIDhZk/Bce3hvVjMAwpkMRToQ/ggZHpSoaUPZ85E7lOAXVu9UdwJbDJFVPKlboyHNSIhThWyzTMqv/41Scm4hl2zUaie4KkfMRl4WPlAbRbapZlIBlfXmYDpI4fyuV9KeKBZtBppKiD2/3pSAWREoqiLfI2KDdCRCaMnV7XxbbkHAs11PHHgy6+YBpd0C+hPdP4QM+fyw0+KQYOF25rwZevEhk2and19cOcpmWqo6DPb9/NFIS1znPVCsS5mR8ILWvvAGpyNn+cdv4kjpsvZdIN1V3BCTIrWdEZ81tQjyWb5Azb9PW4SIvvIHLgnS0h6dCIMot3Ww4KNO1tjH6oC32yB+gBF6ThPvncN09hm3rNVAWn+c31WSyVXjzNMRPlb9db5F27+b7c1avfo/Pv3KdG5z/8V0y9Lv65ZhJDW3EYOQTpzl+Pb73yZytf/LzyFA+YzgiSwovfCwecPyGfP4DMtWuPA0Ci/cfD00CKyrcKSLFrnZPKWtQQzw60UkZFfvEP1hnGFaSepmYtSCaeB07EjpB9Wu+J9FxpEY+89+ZVwjdbr1z0+NsqZnsejK+jALYMFe9YBkrxK5a+xqzQY5DFbidWXJp4ppyzHmMdeu68owjjjBUqR4dSgncoLCFYksqrFeOohbRMx5e1YePhwNMEOqz2hJDR/Z4loKJjApndEMtwiCH2OQppIxSORgNJP/v8WJKze1nwbAS8+r1scx39MG/yWhv5b43stQOZBDiaRoEXkkKknh/b4Dw2Wh3zwUQQn1rtoExwkbnyVhoIeT5WPJ2esqgByg/GHB8a2QcjeneZv4V7xkLEnF1dGmqyRaNvpGXkqBF7wV/gMUQ0TQuted3fcJs0yHvD0hVu7poLKX0rvrqgegK0VvhXFatbgqA4DCso9U7V9NSH9742SBfHEoZXC1BkD+9a/lF2OL6Mi4mAz/c/ltwjB+XawILpQxwOqLJ02CkBKPFtOVUTx5FQKjwITgO/bwGeSFcmpaFv9OaicpJ8B78DV2T9vdvXM6ScqwHpZEUtDXZeEhHyQrmxWFtoIrHTILvpuxZwpAG9fvwLvzCDn1Se1vzb2ZCUdryMpa0GFbvdzqmYHwsYm5dJMuAvsJglErNPqTRAuLFIIQ1A+qP7LeCbxdYVdWlKseo4raBom0w1muYVgel1umf+04ES8/EAOsfC4otldPUTl4wgikpjxZ6PtS9uG7WOQL6MOfsEq9alpaH0ums98lW7Knsdv5YDIofF8qi7Qu/TEoTOsibUXRaYveDxrwwiXc1VM18hUUZAh6Et9MXSJB8Ba1Do3ozROa+MvkUun2b61VG6BAKvOjznavSInisY/SMl7ofip3cb04pO0AWQFZod4LoB4CmIZShJxFIbHRirRSS8wgyEOAOds6Vr/3IHlMZgG7fQCPqulmiZQRk1rptMjewufunuM7X/yi1ni9jdWBTimxfJHABDpCyZv4YYkDZpYXxdtmYyF0eTVYD34S891R+f87fyH4F6igsLXxIy3T9DVky+YhRwiZCv3dG5TgbmJWg6MC7ZncvgxdEnH4/da3ly4K5h36Fa7Ipi+uLLL1CShgcF2ZOXFTTcEYdxYvObBMfm2l6OUe/3SrhTljstt78XhJwOG18GPIZoGMFu3jYJw/UTH06B3ZEkfFi1kOfDlhHPB8QDYrRrdnBH4Dv7mIVXjVhWIW8q+pNe96nsjz+XwKNGN6szhEJbSj+7tyjPHy8sYFt8yWDh/+6STg23jRxrJVItWsXi9HukZHNw4eHpotY1qAGhrYorfzQg0gqEBiuVRLRMU5upj6fAkvLfo07QL+Vd+QSjuu7TDwVtoWE0ygsvAb27p1vNXOEeoHKF8JnRRvdZ7I0x3NYTozK6+w6kKa3JiK7jPZlcjGzgUX22RLzBcffnRjgqNfWIKvKOCMA4g9g7RpoGFxZCnZx4R//DvSe/SnjDR9vv/bl2cUuNhrVKvoJazKWm8uFoaJPb3XjDhjxaua6RFF4eZWKjqXwcEJbCAPzjS30o2RIdtBJNqAFxJdatTfxEnFss+2hxMdJ/TxLB6c3rRZnmkNnb30SCNS8e33jah/TaOw+YADnxAKPfrRt26b4+7bWfoMiSsC7Dfyr06bo+z3GvXUQvuJLrr96ROmjjtQHCO3YFyeb1gLMkfn0xq607+I+SWLD1qbLjxgvbd9n+GV34FW1hydcUxWB6uni4/g3JUKA9noyHj1fxw+SylDgEi3Lg+RWVssnBqQqqNRl/+roVCnm8iZ3X11pNxvUl9GOUKg1Mq7ijSrnv1jO947hTWGWlTCNjELwi8RcVsgWZ77Cfg72LHSJreAGj8nbVWif67djkjJ5MGLUQhmn3x8/bHS0D9MPBogLiHK7r2r5XUlJSM+0r5TAXl7DX3dof0NJ1TT4sPmdJ6LL0499UacMBjsqoaCdMHkAzThHWeAff+JBmVHKulguuV7WK+mx9fvH0juKx7eSRKurZ0MNl2POt1SkqN7/iLTsUqV+36yWoNpalflEhUSuVhaEU6w5Ooq1DvgllloD/A8MLbF82scES1XxsSpcaAneW1kCg7JZNH5+D+q/rpRaNlD3IJKI/NdWJ0ukyQd+my9YFfoiJW7KBUoejKxIkuyN50b4oguO5wKfcGVqlzMjsis8PZghUXNqaCxBS+HA252cE8Ci/a6IKYGKBPOkuK4QVJUw3VgoqoVwDYqXCWm8I9nsw39RVCetLsIXiRJYCCq0r9SCuUlQLyfs5I5eIsRu10GDJhRmXFy51mgAN+IeObkE22PlZ81bqs7Plm5p3PhkW4dg7q1lEG0x3xNWfC6jauFQr/o19lQcVXGNLk3C+qiOzdw9WwihpSK89AEsOcQAaXOuM2MMqplqe+tdWXqq6ZV3q09hpaqFyIk2fVsdS7/HwQPr19KhTDCQYjXb0hYMcmNcYI/vQvuFgzKUx8loZAcPp+2bp40mttM0iexXbccfCctwhifebCHhaEMUQjgymp5ujmCj/FlPs1fznpUsMvyQS/z6ZrtdBalZYJYp83gGLwJBrIxq3k41DAJ/4Myz+2S2kmOBI87fjVBd3X4VeGdw6ZCa4ip2UkaKBinQuAP6d7YpPwklstnL5I6xiplSWP8FViMt8eoQXxoWeWd5KdF1klFIt/XjZnScFKd7M4NQkyLqN8lhaUgA2rmP8/DzoTB9KfOsfcCdS/QE42JTjyTBYC159ygPfE0bE8PuTGEPl2DZ2QxeQBYWhx9rNPlGwNJZi7d4n2WS2kR0oqvXrdoTGrhUiapMvKHYQYjL/MwDO8395Zv5XQ73X/ZSMFNuc64tiiDuTUftlZ5tnDzauewPsWHS/sAnyPuqj63IzzRWigjO/qgcKKYhhBnqk4HTuyn7ALnK64Us0XdBhBFvR3X/dl8LKunVb7gEbX8xQYwZX1+1FeS71w1V2LCTxOisOSI3J+bZGweOQft/8/urj6rERHgW8WddJUW1Cesaks+QE31B9PoXs3HBkT0FDzPq2Dxyr9nnZQNGdKBX9NgKK01301fE3nSPLAXMF3MAQxNW+EcqpTXbsTkYEMLh3ph3nEzWuCpAkp5fLu5uv3mg1kHRtfSwH6Puj12q1KXyC6RLrhAtcQKIEM2APZO7O1uF0RBGKPSxKTqbIpe7H7U2ZAtL3eEXwHtMZvtJkirfqQZ8yuqf6Nsi0q9AAuzgYPrSZvLpkliVXD7mfJk8DG739zWr0IAeqDYth9L3cB+Tg0GEskw+itE3Yy+QA2jCH9eZV/zZYFYx/KNP17RNdANVCAxPwRt3G3pt1gTELGy/UEP5T6FM4rLURCuXDTRC6Z5SwnZuQ/N1aY8MQF5sJ32bVgDNGBrOvjDJyP5ht/G3x6nfdmTrePvRU2rWOdQMlIek7ejAUYiHcD5A1HCiQXgJa7uq0FzVK4um8nhc0FFoJops2/JU8y6Ak15HVEtnnQXV1iWRM7G4Ew7lF8oJR9M92MrpHICjbVk2Ssen9MRlu0yC783/DtF8/E02B5MDjhzmNvVtbBiKDfamv9jJD+9EJlsJ2yxUPBE0UaGs2DgDlq4KWSWpPwmC+PSt1ftRpUQIMk2VVa0CIAdiExj0wafOpRbIUK8ICSUouzEjAOK+iDgMGMcAIbPqVwWQECl4TMKxZF2mYmgIyS/0Ak5drEnhdkNZrDrsh7NhiswPJ01tAGqthfR0OFt+Hw3cpufJqkLPg9KujacI+izTIQ+C+W5j9TZ9/VN6xf6TYEcB3phZz+N8U75qksYQq2eYLxcetNM7IXq7I9L787pflXAEiCowmgLHz7q4zEQOe9Bm370FVvX10fFQRilmKfgF5rVrRzH81VgnrgAAAA;" vertex="1" parent="WIyWlLk6GJQsqaUBKTNV-1">
          <mxGeometry x="118.72000000000003" y="730" width="98.72" height="62.5" as="geometry" />
        </mxCell>
        <mxCell id="sJofw-jmUaGOBElZEfz2-2" value="" style="shape=image;verticalLabelPosition=bottom;labelBackgroundColor=default;verticalAlign=top;aspect=fixed;imageAspect=0;image=data:image/webp,UklGRkQUAABXRUJQVlA4IDgUAADQVgCdASo0AcMAPpFCnEslo6KhpTK62LASCWdu4W8hEZX6yQZ3indG/CPcLsAp3Xx7/Zu2L/Kf2nvL/UP438s/Ws/qvFR1j5ofST9j5Af4jwB9XvqBfjv82/wvopPMOQFAH4//Uv9f/d/79+0nOf4gHzgfHH/Q/2PiKeo+wB+oP9f9tf0p/xn/N/wX+W/eX2Tflv9+/73+F/1XyC/yj+of8H+//5X3oPX7+zPsU/qr/4fz/LIxPzlKS4WrS3ek37W8Wn4bFvnKW+tMkeHoDVTaq/a1jKm+BcPj1p+ujGH1pkqqLFvm4JkbTJKAeFe/h0jYsy7cBGtX/C6Bkpb6uOaXECBWwp7WYBskRkRH6xgNrGUbJHQl7606ttgJid5sGsF/Hvq38c8NipVHHVkLTJWSUDgmVQlEkKlhKTJDYOUcN6tfxeWgZYeSmiUfrJlJfLp/3FUE3M8rpq7lA4pqZmnJJXWEwq5t+79F3p3hgd74o7vCEAuPWM4GmDqDzhBiv9O9fznTDysnTFFsHxqwpQXpeQDVHOU6fosg9R4ppktPMghFMKF5YN2pCJ85LAFKYZWh2B9Z9fil+5Vdgq8TPS3oG2Xij+vN7OU14k2aSfGn1e1f/tJ+nzRpj+y1ceQjaTAGLRuVY5m5uuRKRqEwSqSFGKSOwIvTstOOm6MumCim/RVKo4Mh9X8dKpzfyTQzq9JhOE6SLp8+VO02vu0XdGzmYyoGPorRYGsVr0UAXzq4FiaR/K5VsIjavm2zP7CSGlhK95yNeGZNeXRbIWl5AOlYpkvY2ZXjJ8bJBv4c/4gRAzGqkjlRhcc7VK/yWiyGkwwjO1E0crC6nAdINsqLFvnKW+r94GwkPAHQeVXPe22+cT/zrT9Z/WmSqosW+cpQfnyFXZJr9xLX9P6FceX475KW+tMlVRXWpVeEUWLfOSQAAP7+1iSk9yX0dZ1b2gACW7T/NeKTK788ePMmL35ZPvh017o6iqJl3Kx60caiVlQr3qBd9U4cAdFEycaOXbvudt0wTTgj6n5sKa11p5UhflMjxUVFBbvMxfDRxBHIj3sUA7DRgzU8rsvhAGo4+UYh1+TTsc6O33fd5n+JiJ64WxJoQU7sVYKz+29+K+MtbiQlelEsQNmB3Sh6tiHFTszE4ZOQlQkWyJIL+m9zN5KbT6niljiYAvpOdiIlJUhdNLzuJC7NkRX0frjsmDn/ziPfEm6LC3R1CSjezzSSykF21ojsR2DxRftO4CYdkW+AFIZIXB5xzOLO2dBH9EFRZeRmao2dlk3InRxc86XQSVM4ZYK132qAxmsmb6ad8DY6fl+QwrntWpzdRIRG3fuxqIDq2Ob72M+BNBgFDrm4AprmgI7vHLlanGeNjLXLfb/OgC/eq1kwy1Nbi5bBsbDdqyN5jU4a2Y43RWIJXRTx/mU5MVuaxpXPYZ0EdLhcpv58HnzmwwuCXi9uaEYgWiNz1m4wDKRJQnsBjbCXwJdL/GmyLy+zP9sfyGkTzgOabY7hqYP9ArF5mH7cBUo+yqb570oLnmMu9xCv0+CcZZeoSq/BBuHCrRt8e85PiCrKIcQ/cl2pMDLfHVeAvmip7ZBIYBDD8ZvOmg7uAA1OGAOpn/hb17Q8kI21/6COh9Ne+jU3N3//sLxWn5qkHIBCbmBzeZprYsKCIBwHmBALkvgZtmfpSbQ9gZw3RIimPkgvcu7LaO7wKzR5LT0BSe8K+JYxPG4kKJkAxSZqKUh0uHN5gFdoh6lbK9pGbm+QkEZG3dNQFkMVoxZ0Ol7oF/dDGXAQGAzJI1uBjZZkfiuT46cyCagvze40H5QX6MS9ku9GZmpFqizb+8MuIMOaoPTzxUT0C+DI34L73uYPcLkqBU0nZn2OQsb077NoOQ7RYcnx39baAM4TgAaCgJL2aInHrL8DLZqA5KIZ2KnqM3vXiXfI5GLR8EVceSZYzYJLHPHGK3z34lZTYEPqlpF2bW+e+KNHp8dOg9cO3HP8nc+ll3jPKOu6Ry6A1HpZv2eygF3sK2xHbiEv/KklGfd7HXG0hja8BQPyReSQ097YeErlle4m4yFuCJesJBTAt+Hp7XB9ED57fKmeQKoClYr779Cyf3BjRYpUx76MVDjzhUOWPnhDZK5uszQjqZ7f4BuQXd7NYOV33Z7d/CT5fLAc0N6o23hx/B3ln3jU4Jqew3DDKd8Lkd+w28a6gvSgKf4A/yTfVsA6yDeoVtIERM6q9tQk4lpSODhU1RzF0+C6TmfigzSsiL3CyFsfWIC+ASUqCz6KT2insqd0oVsx5RLIrtIPrpC+o3lYYg7dOWRhZh0mCQJkWV1T/RvFfbFqHv2NR7hCisKz3Hy83f5D5fAqcyZqvYz7buuw4OxythPOM7RaiVeUGpTjRZJfJ/1o6YnAI682nAV7jDOJ9jhomm4xVOPWIS+ySsKK+rrMd7yoXlvOQCfolUfMpE6JBNSix3qA1xI8tb+sXjchckRedo8sh4nBYnGtu2NxJehkO8REA0e3r7UsLezQqQI2HHRCbUQAlhi64CYmtXHCGPvNAFtqemckx/x3PIDhZk/Bce3hvVjMAwpkMRToQ/ggZHpSoaUPZ85E7lOAXVu9UdwJbDJFVPKlboyHNSIhThWyzTMqv/41Scm4hl2zUaie4KkfMRl4WPlAbRbapZlIBlfXmYDpI4fyuV9KeKBZtBppKiD2/3pSAWREoqiLfI2KDdCRCaMnV7XxbbkHAs11PHHgy6+YBpd0C+hPdP4QM+fyw0+KQYOF25rwZevEhk2and19cOcpmWqo6DPb9/NFIS1znPVCsS5mR8ILWvvAGpyNn+cdv4kjpsvZdIN1V3BCTIrWdEZ81tQjyWb5Azb9PW4SIvvIHLgnS0h6dCIMot3Ww4KNO1tjH6oC32yB+gBF6ThPvncN09hm3rNVAWn+c31WSyVXjzNMRPlb9db5F27+b7c1avfo/Pv3KdG5z/8V0y9Lv65ZhJDW3EYOQTpzl+Pb73yZytf/LzyFA+YzgiSwovfCwecPyGfP4DMtWuPA0Ci/cfD00CKyrcKSLFrnZPKWtQQzw60UkZFfvEP1hnGFaSepmYtSCaeB07EjpB9Wu+J9FxpEY+89+ZVwjdbr1z0+NsqZnsejK+jALYMFe9YBkrxK5a+xqzQY5DFbidWXJp4ppyzHmMdeu68owjjjBUqR4dSgncoLCFYksqrFeOohbRMx5e1YePhwNMEOqz2hJDR/Z4loKJjApndEMtwiCH2OQppIxSORgNJP/v8WJKze1nwbAS8+r1scx39MG/yWhv5b43stQOZBDiaRoEXkkKknh/b4Dw2Wh3zwUQQn1rtoExwkbnyVhoIeT5WPJ2esqgByg/GHB8a2QcjeneZv4V7xkLEnF1dGmqyRaNvpGXkqBF7wV/gMUQ0TQuted3fcJs0yHvD0hVu7poLKX0rvrqgegK0VvhXFatbgqA4DCso9U7V9NSH9742SBfHEoZXC1BkD+9a/lF2OL6Mi4mAz/c/ltwjB+XawILpQxwOqLJ02CkBKPFtOVUTx5FQKjwITgO/bwGeSFcmpaFv9OaicpJ8B78DV2T9vdvXM6ScqwHpZEUtDXZeEhHyQrmxWFtoIrHTILvpuxZwpAG9fvwLvzCDn1Se1vzb2ZCUdryMpa0GFbvdzqmYHwsYm5dJMuAvsJglErNPqTRAuLFIIQ1A+qP7LeCbxdYVdWlKseo4raBom0w1muYVgel1umf+04ES8/EAOsfC4otldPUTl4wgikpjxZ6PtS9uG7WOQL6MOfsEq9alpaH0ums98lW7Knsdv5YDIofF8qi7Qu/TEoTOsibUXRaYveDxrwwiXc1VM18hUUZAh6Et9MXSJB8Ba1Do3ozROa+MvkUun2b61VG6BAKvOjznavSInisY/SMl7ofip3cb04pO0AWQFZod4LoB4CmIZShJxFIbHRirRSS8wgyEOAOds6Vr/3IHlMZgG7fQCPqulmiZQRk1rptMjewufunuM7X/yi1ni9jdWBTimxfJHABDpCyZv4YYkDZpYXxdtmYyF0eTVYD34S891R+f87fyH4F6igsLXxIy3T9DVky+YhRwiZCv3dG5TgbmJWg6MC7ZncvgxdEnH4/da3ly4K5h36Fa7Ipi+uLLL1CShgcF2ZOXFTTcEYdxYvObBMfm2l6OUe/3SrhTljstt78XhJwOG18GPIZoGMFu3jYJw/UTH06B3ZEkfFi1kOfDlhHPB8QDYrRrdnBH4Dv7mIVXjVhWIW8q+pNe96nsjz+XwKNGN6szhEJbSj+7tyjPHy8sYFt8yWDh/+6STg23jRxrJVItWsXi9HukZHNw4eHpotY1qAGhrYorfzQg0gqEBiuVRLRMU5upj6fAkvLfo07QL+Vd+QSjuu7TDwVtoWE0ygsvAb27p1vNXOEeoHKF8JnRRvdZ7I0x3NYTozK6+w6kKa3JiK7jPZlcjGzgUX22RLzBcffnRjgqNfWIKvKOCMA4g9g7RpoGFxZCnZx4R//DvSe/SnjDR9vv/bl2cUuNhrVKvoJazKWm8uFoaJPb3XjDhjxaua6RFF4eZWKjqXwcEJbCAPzjS30o2RIdtBJNqAFxJdatTfxEnFss+2hxMdJ/TxLB6c3rRZnmkNnb30SCNS8e33jah/TaOw+YADnxAKPfrRt26b4+7bWfoMiSsC7Dfyr06bo+z3GvXUQvuJLrr96ROmjjtQHCO3YFyeb1gLMkfn0xq607+I+SWLD1qbLjxgvbd9n+GV34FW1hydcUxWB6uni4/g3JUKA9noyHj1fxw+SylDgEi3Lg+RWVssnBqQqqNRl/+roVCnm8iZ3X11pNxvUl9GOUKg1Mq7ijSrnv1jO947hTWGWlTCNjELwi8RcVsgWZ77Cfg72LHSJreAGj8nbVWif67djkjJ5MGLUQhmn3x8/bHS0D9MPBogLiHK7r2r5XUlJSM+0r5TAXl7DX3dof0NJ1TT4sPmdJ6LL0499UacMBjsqoaCdMHkAzThHWeAff+JBmVHKulguuV7WK+mx9fvH0juKx7eSRKurZ0MNl2POt1SkqN7/iLTsUqV+36yWoNpalflEhUSuVhaEU6w5Ooq1DvgllloD/A8MLbF82scES1XxsSpcaAneW1kCg7JZNH5+D+q/rpRaNlD3IJKI/NdWJ0ukyQd+my9YFfoiJW7KBUoejKxIkuyN50b4oguO5wKfcGVqlzMjsis8PZghUXNqaCxBS+HA252cE8Ci/a6IKYGKBPOkuK4QVJUw3VgoqoVwDYqXCWm8I9nsw39RVCetLsIXiRJYCCq0r9SCuUlQLyfs5I5eIsRu10GDJhRmXFy51mgAN+IeObkE22PlZ81bqs7Plm5p3PhkW4dg7q1lEG0x3xNWfC6jauFQr/o19lQcVXGNLk3C+qiOzdw9WwihpSK89AEsOcQAaXOuM2MMqplqe+tdWXqq6ZV3q09hpaqFyIk2fVsdS7/HwQPr19KhTDCQYjXb0hYMcmNcYI/vQvuFgzKUx8loZAcPp+2bp40mttM0iexXbccfCctwhifebCHhaEMUQjgymp5ujmCj/FlPs1fznpUsMvyQS/z6ZrtdBalZYJYp83gGLwJBrIxq3k41DAJ/4Myz+2S2kmOBI87fjVBd3X4VeGdw6ZCa4ip2UkaKBinQuAP6d7YpPwklstnL5I6xiplSWP8FViMt8eoQXxoWeWd5KdF1klFIt/XjZnScFKd7M4NQkyLqN8lhaUgA2rmP8/DzoTB9KfOsfcCdS/QE42JTjyTBYC159ygPfE0bE8PuTGEPl2DZ2QxeQBYWhx9rNPlGwNJZi7d4n2WS2kR0oqvXrdoTGrhUiapMvKHYQYjL/MwDO8395Zv5XQ73X/ZSMFNuc64tiiDuTUftlZ5tnDzauewPsWHS/sAnyPuqj63IzzRWigjO/qgcKKYhhBnqk4HTuyn7ALnK64Us0XdBhBFvR3X/dl8LKunVb7gEbX8xQYwZX1+1FeS71w1V2LCTxOisOSI3J+bZGweOQft/8/urj6rERHgW8WddJUW1Cesaks+QE31B9PoXs3HBkT0FDzPq2Dxyr9nnZQNGdKBX9NgKK01301fE3nSPLAXMF3MAQxNW+EcqpTXbsTkYEMLh3ph3nEzWuCpAkp5fLu5uv3mg1kHRtfSwH6Puj12q1KXyC6RLrhAtcQKIEM2APZO7O1uF0RBGKPSxKTqbIpe7H7U2ZAtL3eEXwHtMZvtJkirfqQZ8yuqf6Nsi0q9AAuzgYPrSZvLpkliVXD7mfJk8DG739zWr0IAeqDYth9L3cB+Tg0GEskw+itE3Yy+QA2jCH9eZV/zZYFYx/KNP17RNdANVCAxPwRt3G3pt1gTELGy/UEP5T6FM4rLURCuXDTRC6Z5SwnZuQ/N1aY8MQF5sJ32bVgDNGBrOvjDJyP5ht/G3x6nfdmTrePvRU2rWOdQMlIek7ejAUYiHcD5A1HCiQXgJa7uq0FzVK4um8nhc0FFoJops2/JU8y6Ak15HVEtnnQXV1iWRM7G4Ew7lF8oJR9M92MrpHICjbVk2Ssen9MRlu0yC783/DtF8/E02B5MDjhzmNvVtbBiKDfamv9jJD+9EJlsJ2yxUPBE0UaGs2DgDlq4KWSWpPwmC+PSt1ftRpUQIMk2VVa0CIAdiExj0wafOpRbIUK8ICSUouzEjAOK+iDgMGMcAIbPqVwWQECl4TMKxZF2mYmgIyS/0Ak5drEnhdkNZrDrsh7NhiswPJ01tAGqthfR0OFt+Hw3cpufJqkLPg9KujacI+izTIQ+C+W5j9TZ9/VN6xf6TYEcB3phZz+N8U75qksYQq2eYLxcetNM7IXq7I9L787pflXAEiCowmgLHz7q4zEQOe9Bm370FVvX10fFQRilmKfgF5rVrRzH81VgnrgAAAA;" vertex="1" parent="WIyWlLk6GJQsqaUBKTNV-1">
          <mxGeometry x="118.72000000000003" y="553" width="98.72" height="62.5" as="geometry" />
        </mxCell>
        <mxCell id="sJofw-jmUaGOBElZEfz2-28" value="" style="curved=1;endArrow=classic;html=1;rounded=0;" edge="1" parent="WIyWlLk6GJQsqaUBKTNV-1">
          <mxGeometry width="50" height="50" relative="1" as="geometry">
            <mxPoint x="68.72" y="702.5" as="sourcePoint" />
            <mxPoint x="270" y="680" as="targetPoint" />
            <Array as="points">
              <mxPoint x="150" y="670" />
              <mxPoint x="240" y="710" />
            </Array>
          </mxGeometry>
        </mxCell>
        <mxCell id="sJofw-jmUaGOBElZEfz2-38" value="" style="curved=1;endArrow=classic;html=1;rounded=0;" edge="1" parent="WIyWlLk6GJQsqaUBKTNV-1">
          <mxGeometry width="50" height="50" relative="1" as="geometry">
            <mxPoint x="170" y="615.5" as="sourcePoint" />
            <mxPoint x="270" y="680" as="targetPoint" />
            <Array as="points">
              <mxPoint x="170" y="660" />
            </Array>
          </mxGeometry>
        </mxCell>
        <mxCell id="sJofw-jmUaGOBElZEfz2-40" value="" style="curved=1;endArrow=classic;html=1;rounded=0;exitX=0.5;exitY=1;exitDx=0;exitDy=0;" edge="1" parent="WIyWlLk6GJQsqaUBKTNV-1">
          <mxGeometry width="50" height="50" relative="1" as="geometry">
            <mxPoint x="168.08000000000004" y="792.5" as="sourcePoint" />
            <mxPoint x="270" y="680" as="targetPoint" />
            <Array as="points">
              <mxPoint x="240" y="780" />
              <mxPoint x="230" y="720" />
            </Array>
          </mxGeometry>
        </mxCell>
        <mxCell id="sJofw-jmUaGOBElZEfz2-44" value="estimate_MI&lt;div&gt;estimate_CE&lt;br&gt;&lt;div&gt;Aggregation&lt;/div&gt;&lt;/div&gt;" style="text;html=1;align=center;verticalAlign=middle;resizable=0;points=[];autosize=1;strokeColor=none;fillColor=none;rotation=0;" vertex="1" parent="WIyWlLk6GJQsqaUBKTNV-1">
          <mxGeometry x="500" y="630" width="90" height="60" as="geometry" />
        </mxCell>
        <mxCell id="sJofw-jmUaGOBElZEfz2-46" value="&lt;i&gt;Client k&lt;/i&gt;" style="text;html=1;align=center;verticalAlign=middle;resizable=0;points=[];autosize=1;strokeColor=none;fillColor=none;" vertex="1" parent="WIyWlLk6GJQsqaUBKTNV-1">
          <mxGeometry x="39.36" y="610" width="60" height="30" as="geometry" />
        </mxCell>
        <mxCell id="sJofw-jmUaGOBElZEfz2-48" value="" style="endArrow=classic;html=1;rounded=0;" edge="1" parent="WIyWlLk6GJQsqaUBKTNV-1">
          <mxGeometry width="50" height="50" relative="1" as="geometry">
            <mxPoint x="490" y="686.25" as="sourcePoint" />
            <mxPoint x="600" y="686" as="targetPoint" />
          </mxGeometry>
        </mxCell>
        <mxCell id="sJofw-jmUaGOBElZEfz2-52" value="neighbor client&amp;nbsp;" style="text;html=1;align=center;verticalAlign=middle;resizable=0;points=[];autosize=1;strokeColor=none;fillColor=none;" vertex="1" parent="WIyWlLk6GJQsqaUBKTNV-1">
          <mxGeometry x="110" y="518" width="100" height="30" as="geometry" />
        </mxCell>
        <mxCell id="sJofw-jmUaGOBElZEfz2-53" value="neighbor client&amp;nbsp;" style="text;html=1;align=center;verticalAlign=middle;resizable=0;points=[];autosize=1;strokeColor=none;fillColor=none;" vertex="1" parent="WIyWlLk6GJQsqaUBKTNV-1">
          <mxGeometry x="118.08" y="800" width="100" height="30" as="geometry" />
        </mxCell>
        <mxCell id="sJofw-jmUaGOBElZEfz2-56" value="Gradient descent&lt;div&gt;&lt;br&gt;&lt;/div&gt;" style="text;html=1;align=center;verticalAlign=middle;resizable=0;points=[];autosize=1;strokeColor=none;fillColor=none;" vertex="1" parent="WIyWlLk6GJQsqaUBKTNV-1">
          <mxGeometry x="260" y="640" width="110" height="40" as="geometry" />
        </mxCell>
        <mxCell id="sJofw-jmUaGOBElZEfz2-57" value="" style="shape=flexArrow;endArrow=classic;html=1;rounded=0;width=19;endSize=8.52;" edge="1" parent="WIyWlLk6GJQsqaUBKTNV-1">
          <mxGeometry width="50" height="50" relative="1" as="geometry">
            <mxPoint x="276" y="684.5" as="sourcePoint" />
            <mxPoint x="366" y="685" as="targetPoint" />
          </mxGeometry>
        </mxCell>
        <mxCell id="sJofw-jmUaGOBElZEfz2-58" value="&lt;span style=&quot;caret-color: rgb(0, 0, 0); color: rgb(0, 0, 0); font-family: Helvetica; font-size: 12px; font-style: normal; font-variant-caps: normal; font-weight: 400; letter-spacing: normal; orphans: auto; text-align: center; text-indent: 0px; text-transform: none; white-space: nowrap; widows: auto; word-spacing: 0px; -webkit-text-stroke-width: 0px; background-color: rgb(251, 251, 251); text-decoration: none; display: inline !important; float: none;&quot;&gt;Feature extraction&lt;/span&gt;" style="text;whiteSpace=wrap;html=1;" vertex="1" parent="WIyWlLk6GJQsqaUBKTNV-1">
          <mxGeometry x="266" y="708.5" width="130" height="40" as="geometry" />
        </mxCell>
        <mxCell id="sJofw-jmUaGOBElZEfz2-59" value="&lt;span style=&quot;caret-color: rgb(0, 0, 0); color: rgb(0, 0, 0); font-family: Helvetica; font-size: 12px; font-style: normal; font-variant-caps: normal; font-weight: 400; letter-spacing: normal; orphans: auto; text-align: center; text-indent: 0px; text-transform: none; white-space: nowrap; widows: auto; word-spacing: 0px; -webkit-text-stroke-width: 0px; background-color: rgb(251, 251, 251); text-decoration: none; display: inline !important; float: none;&quot;&gt;Euclidean dist.&amp;nbsp;&lt;/span&gt;&lt;div&gt;&lt;span style=&quot;caret-color: rgb(0, 0, 0); color: rgb(0, 0, 0); font-family: Helvetica; font-size: 12px; font-style: normal; font-variant-caps: normal; font-weight: 400; letter-spacing: normal; orphans: auto; text-align: center; text-indent: 0px; text-transform: none; white-space: nowrap; widows: auto; word-spacing: 0px; -webkit-text-stroke-width: 0px; background-color: rgb(251, 251, 251); text-decoration: none; display: inline !important; float: none;&quot;&gt;for neighbor&lt;span class=&quot;Apple-converted-space&quot;&gt;&amp;nbsp;&lt;/span&gt;&lt;/span&gt;&lt;i style=&quot;caret-color: rgb(0, 0, 0); color: rgb(0, 0, 0); font-family: Helvetica; font-size: 12px; font-variant-caps: normal; font-weight: 400; letter-spacing: normal; orphans: auto; text-align: center; text-indent: 0px; text-transform: none; white-space: nowrap; widows: auto; word-spacing: 0px; -webkit-text-stroke-width: 0px; text-decoration: none;&quot;&gt;n&lt;/i&gt;&lt;/div&gt;" style="text;whiteSpace=wrap;html=1;" vertex="1" parent="WIyWlLk6GJQsqaUBKTNV-1">
          <mxGeometry x="505" y="690" width="80" height="40" as="geometry" />
        </mxCell>
        <mxCell id="sJofw-jmUaGOBElZEfz2-74" value="" style="shape=image;verticalLabelPosition=bottom;labelBackgroundColor=default;verticalAlign=top;aspect=fixed;imageAspect=0;image=data:image/png,iVBORw0KGgoAAAANSUhEUgAAAowAAAF4CAYAAADe2KhEAAAMQGlDQ1BJQ0MgUHJvZmlsZQAASImVVwdYU8kWnluSkEBoAQSkhN4EESkBpITQAkgvgqiEJEAoMQaCih1ZVHAtqIiADV0VUeyAWFDEzqLY+2JBQVkXC3blTQrouq9873zf3Pvff87858y5c8sAoHaCIxJlo+oA5AjzxNFBfvQJiUl0Ug9AgDpAgRUw4nBzRczIyDAAbej8d3t3A3pDu2ov1fpn/381DR4/lwsAEglxKi+XmwPxQQDwaq5InAcAUcqbTc8TSTFsQEsME4R4sRSny3G1FKfK8V6ZT2w0C+I2AJRUOBxxOgCqlyFPz+emQw3VfogdhTyBEAA1OsTeOTlTeRCnQGwNfUQQS/UZqT/opP9NM3VYk8NJH8byuchMyV+QK8rmzPw/y/G/LSdbMhTDEjaVDHFwtHTOsG63sqaGSrEKxH3C1PAIiDUh/iDgyfwhRikZkuA4uT9qwM1lwZoBHYgdeRz/UIgNIA4UZoeHKfjUNEEgG2K4QtAZgjx2LMS6EC/m5wbEKHw2iadGK2KhDWliFlPBn+OIZXGlsR5IsuKYCv3XGXy2Qh9TLciITYCYArF5viA+HGJViB1ys2JCFT7jCjJY4UM+Ykm0NH9ziKP5wiA/uT6WnyYOjFb4l+TkDs0X25QhYIcr8P68jNhgeX2wNi5Hlj+cC3aZL2TGDenwcyeEDc2Fx/cPkM8d6+EL42IUOh9EeX7R8rE4RZQdqfDHTfnZQVLeFGLn3PwYxVg8Pg8uSLk+nibKi4yV54kXZHJCIuX54CtAGGABf0AHEthSwVSQCQQdfY198EreEwg4QAzSAR/YK5ihEQmyHiE8xoAC8CdEfJA7PM5P1ssH+ZD/OszKj/YgTdabLxuRBZ5CnANCQTa8lshGCYejxYMnkBH8IzoHNi7MNxs2af+/54fY7wwTMmEKRjIUka425EkMIPoTg4mBRBtcH/fGPfEwePSFzQln4O5D8/juT3hK6CQ8IlwndBFuTxEUin/KcjzogvqBilqk/lgL3BJquuB+uBdUh8q4Dq4P7HFnGIeJ+8DILpBlKfKWVoX+k/bfZvDD3VD4kR3JKHkE2Zds/fNIVVtVl2EVaa1/rI8819TherOGe36Oz/qh+jx4Dv3ZE1uMHcDOYiex89hRrBHQsRasCWvHjknx8Op6IltdQ9GiZflkQR3BP+IN3VlpJXMd6xx7Hb/I+/L4M6TvaMCaKpopFqRn5NGZ8IvAp7OFXIdRdCdHJ2cApN8X+evrTZTsu4HotH/nFv4BgFfL4ODgke9cSAsA+9zg43/4O2fNgJ8OZQDOHeZKxPlyDpceCPAtoQafND1gBMyANZyPE3AFnsAXBIAQEAFiQSKYDLPPgOtcDKaD2WABKAalYAVYAyrBRrAF7AC7wX7QCI6Ck+AMuAgug+vgLlw93eAF6AfvwGcEQUgIFaEheogxYoHYIU4IA/FGApAwJBpJRFKQdESISJDZyEKkFClDKpHNSC2yDzmMnETOI53IbeQh0ou8Rj6hGKqCaqGGqCU6GmWgTDQUjUUnoenoNLQALUKXoRVoDboLbUBPohfR62gX+gIdwACmjOlgJpg9xsBYWASWhKVhYmwuVoKVYzVYPdYM7/NVrAvrwz7iRJyG03F7uIKD8Tici0/D5+JL8Up8B96At+FX8Yd4P/6NQCUYEOwIHgQ2YQIhnTCdUEwoJ2wjHCKchs9SN+EdkUjUIVoR3eCzmEjMJM4iLiWuJ+4hniB2Eh8TB0gkkh7JjuRFiiBxSHmkYtI60i5SC+kKqZv0QUlZyVjJSSlQKUlJqFSoVK60U+m40hWlZ0qfyepkC7IHOYLMI88kLydvJTeTL5G7yZ8pGhQrihcllpJJWUCpoNRTTlPuUd4oKyubKrsrRykLlOcrVyjvVT6n/FD5o4qmiq0KSyVZRaKyTGW7ygmV2ypvqFSqJdWXmkTNoy6j1lJPUR9QP6jSVB1U2ao81XmqVaoNqldUX6qR1SzUmGqT1QrUytUOqF1S61Mnq1uqs9Q56nPVq9QPq99UH9CgaYzRiNDI0ViqsVPjvEaPJknTUjNAk6dZpLlF85TmYxpGM6OxaFzaQtpW2mlatxZRy0qLrZWpVaq1W6tDq19bU9tZO157hnaV9jHtLh1Mx1KHrZOts1xnv84NnU8jDEcwR/BHLBlRP+LKiPe6I3V9dfm6Jbp7dK/rftKj6wXoZemt1GvUu6+P69vqR+lP19+gf1q/b6TWSM+R3JElI/ePvGOAGtgaRBvMMthi0G4wYGhkGGQoMlxneMqwz0jHyNco02i10XGjXmOasbexwHi1cYvxc7o2nUnPplfQ2+j9JgYmwSYSk80mHSafTa1M40wLTfeY3jejmDHM0sxWm7Wa9Zsbm483n21eZ37HgmzBsMiwWGtx1uK9pZVlguUiy0bLHitdK7ZVgVWd1T1rqrWP9TTrGutrNkQbhk2WzXqby7aorYtthm2V7SU71M7VTmC33q5zFGGU+yjhqJpRN+1V7Jn2+fZ19g8ddBzCHAodGh1ejjYfnTR65eizo785ujhmO251vDtGc0zImMIxzWNeO9k6cZ2qnK6NpY4NHDtvbNPYV852znznDc63XGgu410WubS6fHV1cxW71rv2upm7pbhVu91kaDEiGUsZ59wJ7n7u89yPun/0cPXI89jv8ZenvWeW507PnnFW4/jjto577GXqxfHa7NXlTfdO8d7k3eVj4sPxqfF55Gvmy/Pd5vuMacPMZO5ivvRz9BP7HfJ7z/JgzWGd8Mf8g/xL/DsCNAPiAioDHgSaBqYH1gX2B7kEzQo6EUwIDg1eGXyTbcjmsmvZ/SFuIXNC2kJVQmNCK0MfhdmGicOax6PjQ8avGn8v3CJcGN4YASLYEasi7kdaRU6LPBJFjIqMqop6Gj0menb02RhazJSYnTHvYv1il8fejbOOk8S1xqvFJ8fXxr9P8E8oS+iaMHrCnAkXE/UTBYlNSaSk+KRtSQMTAyaumdid7JJcnHxjktWkGZPOT9afnD352BS1KZwpB1IIKQkpO1O+cCI4NZyBVHZqdWo/l8Vdy33B8+Wt5vXyvfhl/GdpXmllaT3pXumr0nszfDLKM/oELEGl4FVmcObGzPdZEVnbswazE7L35CjlpOQcFmoKs4RtU42mzpjaKbITFYu6pnlMWzOtXxwq3paL5E7KbcrTgj/y7RJryS+Sh/ne+VX5H6bHTz8wQ2OGcEb7TNuZS2Y+Kwgs+G0WPos7q3W2yewFsx/OYc7ZPBeZmzq3dZ7ZvKJ53fOD5u9YQFmQteD3QsfCssK3CxMWNhcZFs0vevxL0C91xarF4uKbizwXbVyMLxYs7lgydsm6Jd9KeCUXSh1Ly0u/LOUuvfDrmF8rfh1clrasY7nr8g0riCuEK26s9Fm5o0yjrKDs8arxqxpW01eXrH67Zsqa8+XO5RvXUtZK1nZVhFU0rTNft2Ldl8qMyutVflV7qg2ql1S/X89bf2WD74b6jYYbSzd+2iTYdGtz0OaGGsua8i3ELflbnm6N33r2N8Zvtdv0t5Vu+7pduL1rR/SOtlq32tqdBjuX16F1krreXcm7Lu/2391Ub1+/eY/OntK9YK9k7/N9Kftu7A/d33qAcaD+oMXB6kO0QyUNSMPMhv7GjMaupsSmzsMhh1ubPZsPHXE4sv2oydGqY9rHlh+nHC86PthS0DJwQnSi72T6ycetU1rvnppw6lpbVFvH6dDT584Enjl1lnm25ZzXuaPnPc4fvsC40HjR9WJDu0v7od9dfj/U4drRcMntUtNl98vNneM6j1/xuXLyqv/VM9fY1y5eD7/eeSPuxq2byTe7bvFu9dzOvv3qTv6dz3fn3yPcK7mvfr/8gcGDmj9s/tjT5dp17KH/w/ZHMY/uPuY+fvEk98mX7qKn1Kflz4yf1fY49RztDey9/Hzi8+4Xohef+4r/1Piz+qX1y4N/+f7V3j+hv/uV+NXg66Vv9N5sf+v8tnUgcuDBu5x3n9+XfND7sOMj4+PZTwmfnn2e/oX0peKrzdfmb6Hf7g3mDA6KOGKO7FcAgw1NSwPg9XYAqIkA0OD+jDJRvv+TGSLfs8oQ+E9YvkeUmSsA9fD/PaoP/t3cBGDvVrj9gvpqyQBEUgGIdQfo2LHDbWivJttXSo0I9wGbwr+m5qSCf2PyPecPef98BlJVZ/Dz+V/rA3xia5LrggAAAIplWElmTU0AKgAAAAgABAEaAAUAAAABAAAAPgEbAAUAAAABAAAARgEoAAMAAAABAAIAAIdpAAQAAAABAAAATgAAAAAAAACQAAAAAQAAAJAAAAABAAOShgAHAAAAEgAAAHigAgAEAAAAAQAAAoygAwAEAAAAAQAAAXgAAAAAQVNDSUkAAABTY3JlZW5zaG90+6EYAAAAAAlwSFlzAAAWJQAAFiUBSVIk8AAAAdZpVFh0WE1MOmNvbS5hZG9iZS54bXAAAAAAADx4OnhtcG1ldGEgeG1sbnM6eD0iYWRvYmU6bnM6bWV0YS8iIHg6eG1wdGs9IlhNUCBDb3JlIDYuMC4wIj4KICAgPHJkZjpSREYgeG1sbnM6cmRmPSJodHRwOi8vd3d3LnczLm9yZy8xOTk5LzAyLzIyLXJkZi1zeW50YXgtbnMjIj4KICAgICAgPHJkZjpEZXNjcmlwdGlvbiByZGY6YWJvdXQ9IiIKICAgICAgICAgICAgeG1sbnM6ZXhpZj0iaHR0cDovL25zLmFkb2JlLmNvbS9leGlmLzEuMC8iPgogICAgICAgICA8ZXhpZjpQaXhlbFlEaW1lbnNpb24+Mzc2PC9leGlmOlBpeGVsWURpbWVuc2lvbj4KICAgICAgICAgPGV4aWY6UGl4ZWxYRGltZW5zaW9uPjY1MjwvZXhpZjpQaXhlbFhEaW1lbnNpb24+CiAgICAgICAgIDxleGlmOlVzZXJDb21tZW50PlNjcmVlbnNob3Q8L2V4aWY6VXNlckNvbW1lbnQ+CiAgICAgIDwvcmRmOkRlc2NyaXB0aW9uPgogICA8L3JkZjpSREY+CjwveDp4bXBtZXRhPgr3mZNRAAAAHGlET1QAAAACAAAAAAAAALwAAAAoAAAAvAAAALwAACwjzVpzawAAK+9JREFUeAHsnQeYFUXWhg9RQUAQXHIGkaCwuKDkJQpIkLDgknNmyBklZ1iCMMCSBpWogKBEUZIElZxzWiRJkLA/qIR/T7msMAz39r1d3V1V/dXz8DBzu+rUOe93d/3o7qqK9fA/jdBAAARAAARAAARAAARA4BkEYsEwPoMMPgYBEAABEAABEAABEBAEYBjxRQABEAABEAABEAABEAhIAIYxIB5cBAEQAAEQAAEQAAEQgGHEdwAEQAAEQAAEQAAEQCAgARjGgHhwEQRAAARAAARAAARAAIYR3wEQAAEQAAEQAAEQAIGABGAYA+LBRRAAARAAARAAARAAARhGfAdAAARAAARAAARAAAQCEoBhDIgHF0EABEAABEAABEAABGAY8R0AARAAARAAARAAARAISACGMSAeXAQBEAABEAABEAABEIBhxHcABEAABEAABEAABEAgIAEYxoB4cNFrAufPn6cLFy7QgwcPvE4F84MACICAdgTixIlDqVOnFn+0Sx4JK0UAhlEpOZAME7h+/TqNHTuW5s+fT8eOHQMUEAABEAABmwRy5MhBf//736lTp06UJEkSm9Ew3I8EYBj9qLrCNbNJbNeuHV29elXhLJEaCIAACOhJIGXKlDRp0iSqUaOGngUga88IwDB6hh4TRycwbdo0atGiRfSP8TsIgAAIgIBkArNmzaJGjRpJjopwJhOAYTRZXY1q27ZtGxUqVEijjJEqCIAACOhNYMeOHZQ/f369i0D2rhGAYXQNNSYKRKB8+fK0evXqQF1wDQRAAARAQCKBypUr07JlyyRGRCiTCcAwmqyuJrXt2rUL/8rVRCukCQIgYBaBAwcOUK5cucwqCtU4QgCG0RGsCBoKgVGjRlH37t1DGYK+IAACIAACEgiMHz+eIiIiJERCCNMJwDCarrAG9TVt2pRmzpypQaZIEQRAAATMItC6dWuKjIw0qyhU4wgBGEZHsCJoKAR4bzDeTgcNBEAABEDAXQINGzakqKgodyfFbFoSgGHUUjazkoZhNEtPVAMCIKAPARhGfbTyOlMYRq8VwPzi9AHcYcQXAQRAAATcJwDD6D5zXWeEYdRVOYPyxh1Gg8REKSAAAloRgGHUSi5Pk4Vh9BQ/JmcCMIz4HoAACICANwRgGL3hruOsMIw6qmZYzjCMhgmKckAABLQhAMOojVSeJwrD6LkESACGEd8BEAABEPCGAAyjN9x1nBWGUUfVDMsZhtEwQVEOCICANgRgGLWRyvNEYRg9lwAJyDKMmTNnBkwQAAEQ8A2BU6dO2a4VhtE2Qt8EgGH0jdTqFirDMI4cOZIaNWqkbpHIDARAAAQkE/jnP/9Jffv2tRUVhtEWPl8NhmH0ldxqFgvDqKYuyAoEQEBtAjCMautjWnYwjKYpqmE9MIwaioaUQQAEPCcAw+i5BL5KAIbRV3KrWSwMo5q6ICsQAAG1CcAwqq2PadnBMJqmqIb1wDBqKBpSBgEQ8JwADKPnEvgqARhGX8mtZrEwjGrqgqxAAATUJgDDqLY+pmUHw2iaohrWA8OooWhIGQRAwHMCMIyeS+CrBGAYfSW3msXCMKqpC7ICARBQmwAMo9r6mJYdDKNpimpYDwyjhqIhZRAAAc8JwDB6LoGvEoBh9JXcahYLw6imLsgKBEBAbQIwjGrrY1p2MIymKaphPTCMGoqGlEEABDwnAMPouQS+SgCG0Vdyq1ksDKOauiArEAABtQnAMKqtj2nZwTCapqiG9cAwaigaUgYBEPCcAAyj5xL4KgEYRl/JrWaxMIxq6oKsQAAE1CYAw6i2PqZlB8NomqIa1gPDqKFoSBkEQMBzAjCMnkvgqwRgGH0lt5rFwjCqqQuyAgEQUJsADKPa+piWHQyjaYpqWA8Mo4aiIWUQAAHPCcAwei6BrxKAYfSV3GoWC8Oopi7ICgRAQG0CMIxq62NadjCMpimqYT0wjBqKhpRBAAQ8JwDD6LkEvkoAhtFXcqtZLAyjmrogKxAAAbUJwDCqrY9p2cEwmqaohvXAMGooGlIGARDwnAAMo+cS+CoBGEZfya1msTCMauqCrEAABNQmAMOotj6mZQfDaJqiGtYDw6ihaEgZBEDAcwIwjJ5L4KsEYBh9JbeaxcIwqqkLsgIBEFCbAAyj2vqYlh0Mo2mKalgPDKOGoiFlEAABzwnAMHouga8SgGH0ldxqFgvDqKYuyAoEQEBtAjCMautjWnYwjKYpqmE9MIwaioaUQQAEPCcAw+i5BL5KAIbRV3KrWSwMo5q6ICsQAAG1CcAwqq2PadnBMJqmqIb1wDBqKBpSBgEQ8JwADKPnEvgqARhGX8mtZrEwjGrqgqxAAATUJgDDqLY+pmUHw2iaohrWA8OooWhIGQRAwHMCMIyeS+CrBGAYfSW3msXCMKqpC7ICARBQmwAMo9r6mJYdDKNpimpYDwyjhqIhZRAAAc8JwDB6LoGvEoBh9JXcahYLw6imLqFmdeHCBTp8+DCdOHGCzpw5Q+fPn6dLly7R9evX6datW3Tnzh26d+8ePXz4kOLFi0cJEiSgJEmSULJkyShVqlSUJk0aypQpE2XJkoVy5sxJf/rTn0JNAf1BwFcEYBh9JbfnxcIwei4BEoBh1PM78P3339OWLVtox44dtGvXLrp8+bLUQlKnTk358+enN954gwoXLix+ljoBgoGA5gRgGDUXULP0YRg1E8zEdGEY9VCV7xKuXLmS1q5dS19//bW4a+hm5nwnslSpUlSmTBmqWLGiuEPp5vyYCwRUIwDDqJoiZucDw2i2vlpUB8OotkxffvklLVq0iJYvX65MonHixKFKlSpR9erVqUKFCsrkhURAwE0CMIxu0sZcMIz4DnhOAIbRcwmeSuDs2bM0Z84cmjdvHl28ePGp6yp9kDZtWuLvUJ06dShdunQqpYZcQMBRAjCMjuJF8GgEYBijAcGv7hOAYXSf+bNm5HcRZ8yYQQsXLnxWF6U/5+9S48aNKV++fErnieRAQAYBGEYZFBHDKgEYRquk0M8xAjCMjqG1HHjnzp0UGRlJy5YtszxG5Y5Vq1al1q1bY6GMyiIhN9sEYBhtI0SAEAjAMIYAC12dIQDD6AxXK1F5C5yxY8dqe0cxWI21a9emDh06ULZs2YJ1xXUQ0I4ADKN2kmmdMAyj1vKZkTwMo/s63r9/n4YPH07jx493f3IPZuzYsSN17dqV4seP78HsmBIEnCEAw+gMV0SNmQAMY8xc8KmLBGAYXYT9n6mWLFlCw4YNo9OnT7s7scez8YKYPn36UI0aNTzOJPD0d+/epY0bN9LmzZvFHpe8+Xns2LHFxua8J2WxYsWoePHiFCtWrMCBcNV4AjCMxkusVIEwjErJ4c9kYBjd0Z1PYhkwYAAtXrzYnQkVnaVKlSrUr18/Sp8+vXIZHjhwgKZNm0Zz584NmFuzZs2oefPmlDlz5oD9cNFsAjCMZuurWnUwjKop4sN8YBidF33BggXUt29funHjhvOTaTADH0s4ePBgql+/vjLZrlu3jsaNG0dbt261lFPZsmXF+5kFCxa01B+dzCMAw2iepipXBMOosjo+yQ2G0Tmh+fFmz549g96xci4DtSNXq1aNRowYQUmTJvU00b1799LAgQPFo+hQEuG7pWPGjKEXX3wxlGHoawgBGEZDhNSkDBhGTYQyOU0YRmfU3bZtG3Xu3JmOHz/uzASGROVH0yNHjqTSpUt7UtGRI0eEaeUTdcJp/Hi9bdu24QzFGM0JwDBqLqBm6cMwaiaYienCMMpXld+D4wUeaNYJ9O7dm3g1tZvt6tWrNGjQIFt3gHPlyiXeS33ppZfcTB1zKUAAhlEBEXyUAgyjj8RWtVQYRrnKdO/enaKiouQG9Uk0Ppt6woQJrmy/c/PmTRo9ejRNmTLFNt1PPvmEypUrZzsOAuhFAIZRL710zxaGUXcFDcgfhlGOiJcvXxanm2zatElOQJ9Gef3112nixIn06quvOkpg1KhRxH9kNN4mqWnTpjJCIYZGBGAYNRLLgFRhGA0QUfcSYBjtK8hnQLds2VKJvRV5v8M8efLQK6+8QlmyZBH7ByZPnpwSJ04s7tzx/oG8GOfWrVt05coVOn/+PJ08eZL4Xb79+/cTb//jdeNFMJMnT3bsvcapU6fSkCFDBAcZtfbq1Ys6deokIxRiaEQAhlEjsQxIFYbRABF1LwGG0Z6Ca9asEXvy3blzx16gMEfzCt0yZcpQiRIlqEiRIrb3Nzx16pTYtJo3r167di3dvn07zMzsD+NjE+vWrWs/0GMReI/F999/Xxjmxz629SPvr8lnZ6P5iwAMo7/09rpaGEavFcD8BMMY/peA91ds3759+AFsjOT3/XhbmrfffttGlOBDV6xYIU6nWbp0afDODvTg/SsjIiKkROaV0Hxnkc/wltlmz55NFSpUkBkSsTQgAMOogUgGpQjDaJCYupYCwxiectOnTyde2etm48fNjRo1ojp16lCKFCncnJr4iLx58+bRrFmzXH9s3a5dO/rggw9s1bt+/Xpx0g6f5iKz8WP/OXPmUNasWWWGRSwNCMAwaiCSQSnCMBokpq6lwDCGrtyHH34otmMJfWR4I9iMtGrViho2bBheAMmj2DTye4D87qNbrXHjxmK/xHDm27lzpzi/e8OGDeEMDziG737yXVA0/xGAYfSf5l5WDMPoJX3MLQjAMIb2RfjHP/5Bw4cPD21QmL15b78uXbqIdyTDDOHoMP4PJr9nyPsZutH4fUaeL5R29OhR8Rh65cqVoQyz1Ld48eLiiEOnV3RbSgadXCcAw+g6cl9PCMPoa/nVKB6G0boObppFXnXdo0cPSpQokfUEPejJi2J4P8PIyEhXZn/vvffEXo1WJrt48aIw97zQRXbjR9G82MXpd0hl54148gjAMMpjiUjBCcAwBmeEHg4TgGG0Bpg3lB48eLC1zjZ6FSxYkPi4uQIFCtiI4v7QHTt2iMf0W7ZscXxy/s6OHz8+4DxsZPlOMP9HXXZLmzatOMmnZs2askMjnkYEYBg1EsuAVGEYDRBR9xJgGIMryKeB2F10EXwWEncU+RG0zs2t9zsbNGgg7mw+ixWfT813PmW3uHHjin84NGnSRHZoxNOMAAyjZoJpni4Mo+YCmpA+DGNgFXkFrNObMvM7cCNGjKBChQoFTkaTq7yROT9O3717t6MZN2/eXLyfGH0SNvj9+/enBw8eRL9k+3c+I7xDhw624yCA/gRgGPXXUKcKYBh1UsvQXGEYny3sF1984fiRb/xO3pgxYyhevHjPTkTTKz179qSZM2c6mn3nzp2J53nU+Fxnfrfwxo0bjz6S9jeviGbDyKfloIEADCO+A24SgGF0kzbmipEADGOMWMRpJ7w59sOHD2PuIOFTP5wQwgaOTZ2Tje8mtmnThnhjbmZ65swZ6dPx/pfdunWjl19+WXpsBNSTAAyjnrrpmjUMo67KGZQ3DOPTYh47doyqVq0qzlp++qr9T5IkSSJWFZcrV85+MA0ibNu2TZyI44SRe1Q+G0Y+zpDPw5bd+B8OfJwgL3ZBA4FHBGAYH5HA324QgGF0gzLmCEgAhvFJPLy6ls3ivn37nrwg6Td+X5E3vc6ZM6ekiHqE4S1uePNxN1ZRyyTC53TzI+/XX39dZljEMoAADKMBImpUAgyjRmKZmioM45PK1q9fn1avXv3kh5J+K1asGE2bNo14Q26/NjaNixcv1qJ83uKIV8fz32ggEJ0ADGN0IvjdSQIwjE7SRWxLBGAY/8DECxrY0DnR3nnnHXEOsxOxdYvJZ3DzWdwqtxw5cogj/7Axd/gqrVixgnh/zgsXLlCcOHEoY8aMYieAIkWKhB9UoZEwjAqJ4YNUYBh9ILLqJcIw/q4QG0U2jE60WrVq0cSJE50IrW3MoUOH0rhx45TMP3Xq1GJbnmrVqimZn+pJ8SsXvB/n5cuXY0w1d+7cYiFU5cqVY7yuy4cwjLooZUaeMIxm6Kh1FTCMRBs2bKC//e1vjuhYr1494iMF0Z4m4OZRi0/PHvMnCRMmFCftNG7cOOYO+DQgAd7QnFerW2nt27cXi4ms9FWxDwyjiqqYmxMMo7naalOZ3w3j+fPnqUKFCuKxmWzR6tatS2PHjpUd1qh4bh25aBUar4ZmI4MWOoFQzOKj6HyyEW/yrmODYdRRNX1zhmHUVztjMve7YQznP3JWxK9du7Z4LGelr9/78LnQQ4YM8RwDn+DCK6L5fTu00AjYecVgyZIlpON7jTCMoX1H0NseARhGe/wwWgIBPxtG3h+wSpUqEig+GYK35XFq8cyTM5nz26hRo4j/eNV4Y+5evXpRsmTJvEpB23k//fRTatu2bdj5ly1blvgITt0aDKNuiumdLwyj3voZkb2fDSMbhBkzZkjVsVSpUjR//nypMf0SbODAgZ4sDuL3V/nOYvr06f2CWlqdP/zwA/EOAHbb3r17KVWqVHbDuDoehtFV3L6fDIbR918B7wH42TDynY09e/ZIE+HPf/6z2GPwhRdekBbTb4G6du1KH330kWtlly5dWiy8yJUrl2tzmjLRpUuXiFc6nz592nZJUVFRVLFiRdtx3AwAw+gmbcwFw4jvgOcE/GwYeXuPn376SYoGfHfq888/x10qCTSbNm1KX3zxhYRIgUMULlxYPIZ+8803A3fE1RgJvPvuu9JO7hk+fDjx+8Q6NRhGndTSP1cYRv011L4CPxvGvHnzSlkdHTduXFq6dCkVKFBA+++DCgXcv3+feA9EfsfUqZY9e3YaMGAA8dF/aKETkH1iz+jRo6lBgwahJ+LhCBhGD+H7cGoYRh+KrlrJfjaMvDhl69attiXhBS4cC00egaNHj4rtjm7duiUv6H8j8dGMw4YNE6ZUenAfBHTipJ6FCxfSX//6V63owTBqJZf2ycIwai+h/gX42TCOGDGCxowZY0vEvn37UkREhK0YGPwkgYcPHxI/onRyD0uY/CeZW/1t5MiRxHcDZTbexujkyZOUIEECmWEdjwXD6DhiTPAYARjGx2DgR28I+NkwnjhxQpxtGy75OnXqKHu8Xbg1qTBu0qRJ4nGx07l8/PHHhLOirVOOjIwURyZaH2Gtp64b3MMwWtMXveQQgGGUwxFRbBDws2FkbP369aPJkyeHTJDfV1y+fHnI4zAgMIHZs2cLs3j79u3AHSVdnTt3Lt5jtMBy+vTpxI+iZbfnnnuOvv32W8qYMaPs0I7Hg2F0HDEmeIwADONjMPCjNwT8bhiZOu/Dx+dJW228XxyviM6SJYvVIehngQAvHOKFKOfOnbPQW06X2LFji02jeXsdtJgJzJo1y7Hj+/huslPnuMdcjbxPYRjlsUSk4ARgGIMzQg+HCcAwEv3222/UunVrWrZsWVDar732mthcOmfOnEH7ooN1Al999RUNHjyYDh06ZH2QxJ6892P58uUlRjQjFG9szxvcO9E6duzoyF1LJ3KNKSYMY0xU8JlTBGAYnSKLuJYJwDD+gYpPaOFHb3zqRPSWNm1ase1Hp06dol/C7zYJbN++nfiUFye30bGS4pQpU6h69epWuvqij1PvLDK8SpUq0cyZM7XmCMOotXzaJQ/DqJ1k5iUMw/i0pseOHaMDBw7Q9evXiU9t4T37+BQXNPkE9u/fL1ZEr1mzRn7wMCLquIF0GGUGHeLEauhHk/Jd+i+//FK7VdGP8n/0NwzjIxL42w0CMIxuUMYcAQnAMAbEg4sOErhw4QINGjSIPvvsMwdnCT10t27diP/4tTlxxvojli+++KI4xefVV1999JG2f8MwaiudlonDMGopm1lJwzCapacu1Vy5ckXs56fqY0ldt3qxo/8vv/xCbdq0cfRYRn7to1SpUnbSVGYsDKMyUvgiERhGX8isdpEwjGrrY2p2Q4cOVX4Py2LFitGHH35IadKkMVWG/9XFr2G0bduWdu/e/b/PZP/AG7GzETelwTCaoqQedcAw6qGT0VnCMBotr5LFsQnjFdF8oovqjc0iG52SJUuqnmrY+fF+oh06dKCbN2+GHSPYQBNPRIJhDKY6rsskAMMokyZihUUAhjEsbBgUJoGoqChi8/Drr7+GGcGbYSYaHiYp43jMYIrwY+7+/fsH66bddRhG7STTOmEYRq3lMyN5GEYzdNShisWLF9OQIUPoX//6l/R0eTP1ixcvSo/7eEA+RnDYsGGULl26xz/W8udTp05Rz549ad26dY7mX79+fdvntTuaoI3gMIw24GFoyARgGENGhgGyCcAwyiaKeDER4I25+RjG48ePx3TZ1me1a9cWizX4saqT7+BxkokTJxYru/kccV0bn6Hdp08funv3rqMl1KhRI6xjNx1NSmJwGEaJMBEqKAEYxqCI0MFpAjCMThNGfN6Qm+/Mbd26VTqMcuXKiUfcvE3LpUuXiI3cvn37pM8TPeA777wjTinhPTp1aUePHhV3eFeuXOl4yiZszB0MEgxjMEK4LpMADKNMmogVFgEYxrCwYZBFArwBOu+1+M0331gcYb0br2LmPQP/8pe//G8QP5bmlbhumEaetGvXruIPn0mtanvw4IF4LDxq1ChXUmQzzedPm95gGE1XWK36YBjV0sOX2cAw+lJ2V4o+e/asOMXFiY25+Y4iL6SIaU+/n376ifjduZ07d7pSJ7/TGBERQY0aNXJlvlAm4TOyx48f78h7ozHl4Yc7i4/qhmF8RAJ/u0EAhtENypgjIAEYxoB4cDFMAteuXROPoWfPnh1mhGcPy5w5s3gHr0qVKs/s9PPPPwsDt2XLlmf2kX0hW7Zs1LJlS2rYsKHs0CHH++STT2jq1Kl05MiRkMeGO4DP4ebzuP3SYBj9orQadcIwqqGDr7OAYfS1/I4Uf+/ePXFnccKECdLjJ0yYUOzhWK9evaCxf/vtN2rcuDG5fU51ypQpifPj/21lyJAhaJ6yOvBRi/PmzSNe1PLjjz/KCmspToMGDcTJPZY6G9IJhtEQITUpA4ZRE6FMThOG0WR1vamNjSJvzC27xYsXTyxwad26dUih+XExH0nnRStTpgxVrlyZypcvT8mSJZOewq1bt2jVqlXiOD/+24vGJ8TwCni/NRhGvynubb0wjN7yx+z/IQDDiK+BTAJ8NvSAAQPozp07MsOKWF26dKEePXqEFZdzmjRpUlhjZQ0qUqQIFS1alAoWLEj58+enF154IeTQfN7zrl276LvvvqPNmzfT+vXrQ44hcwAbRTaMfmwwjH5U3buaYRi9Y4+Z/0sAhhFfBVkElixZIu40ObGBdvPmzalbt26UNGnSsNOdPn262Aon7ACSB/I7j1mzZqX06dMTbzzOdyD5kXucOHGIVzaz6b5+/brYLog3Oz9x4oSr7yQGK3fixIlUq1atYN2MvQ7DaKy0ShYGw6ikLP5KCobRX3o7Ve0PP/wgtrjZu3ev9Cnee+89ev/99+nll1+2HXv16tViRTMbMbTwCKRNm5YiIyOpUKFC4QUwZBQMoyFCalIGDKMmQpmcJgyjyeq6Vxs/mpw8ebL0CStUqCCOsMuZM6e02Hynjt9rZJOLFhqBkiVLim16+I6o3xsMo9+/Ae7WD8PoLm/MFgMBGMYYoOCjkAicO3dOvAsrewsXft/vgw8+oHz58oWUj9XO3bt3p6ioKKvdfd+PFxvxu6BovxOAYcQ3wU0CMIxu0sZcMRKAYYwRCz4MgQAvvJD9Lttrr70m9lqMaWPuEFIL2nXOnDnExpG34EGLmQAvzuFTYmrWrBlzB59+CsPoU+E9KhuG0SPwmPYPAjCMf7DAT+ER4M25eUGKrJYxY0axeIZPDXGj8Z1RPmLw22+/dWM6rebgR9DDhw8n3iwd7UkCMIxP8sBvzhKAYXSWL6JbIADDaAESugQkMGPGDGG4AnayeJFXQfNjaCsbc1sMabnb2LFjxek0lgcY3pEXGrVv397wKsMvD4YxfHYYGToBGMbQmWGEZAIwjJKB+jDc0qVLibe9sdtix44t3pHj4/W8arzKm9/T27Rpk1cpeD5viRIlxB3ePHnyeJ6LygnAMKqsjnm5wTCap6l2FcEwaieZcgnv3r2b+Bzh27dv28qNH2vLfLRtJ5lZs2bR0KFD6caNG3bCaDWW7+727t1bnMGtVeIeJQvD6BF4n04Lw+hT4VUqG4ZRJTX0zYXPErZzNF2LFi3E9jmJEiVSBsLPP/8sFntMmzZNmZycSqRZs2bUtWtXeumll5yawri4MIzGSap0QTCMSsvjj+RgGP2hs9NVLliwIOz33erUqSPMoqp7+x04cID4fGw+yca0VrVqVbEnJa9KRwuNAAxjaLzQ2x4BGEZ7/DBaAgEYRgkQEUIQ4EUSU6dODYkGb8zdt29fyp49e0jjvOjMG31zfcuWLfNieqlzVqxYkfhdUb+f1mIHKgyjHXoYGyoBGMZQiaG/dAIwjNKR+jYgnyE9fvx44lXTVlrlypXFXUmnNua2kkM4ffbs2SM2/OY9HHVrtWvXFu8ovvHGG7qlrly+MIzKSWJ0QjCMRsurR3EwjHropEuWvPBl7ty5NG/ePOJHuTG11KlTi42+69atS5kyZYqpixafXb58WdTKj+P5uEFVG+9ryUaR/7fO50CjySEAwyiHI6JYIwDDaI0TejlIAIbRQbg+Dn306FHavn078TY1p06dovv371P69OmJz4Tmu1um3eHauHEj8fZCy5cvp2vXrnmufOLEiYk3Pq9SpQqVLl3a83xMTACG0URV1a0JhlFdbXyTGQyjb6RGoS4R4KMS165dK/ZyPHTokEuzEmXLlo2KFy9OZcqUEX9cm9inE8Ew+lR4j8qGYfQIPKb9gwAM4x8s8BMIyCbw448/Ei+W2bFjh7jbevDgQSl7O/L5zrlz5yZe3cx3awsUKED86BnNPQIwjO6xxkxEMIz4FnhOAIbRcwmQgM8InD9/nk6ePEnnzp2jCxcu0NWrV8Vj7P/7v/+ju3fv0sOHDwWR559/nhIkSCD2RuT9EdOkSSPeQcySJYt4vO8zbMqVC8OonCRGJwTDaLS8ehQHw6iHTsgSBEBALQIwjGrpYXo2MIymK6xBfTCMGohkIUW+M3XkyBGxWvfMmTPEd7F4FS8vwLh16xbduXOH7t27J+5exY8fn/juVZIkScTdq5QpU4q7V7xime9e8cKUuHHjWpgVXUDAvwRgGP2rvReVwzB6QR1zPkEAhvEJHNr8cvz4cdq6datYibxr1y46fPiw1Nz5/bj8+fOL9+N4c+fMmTNLjY9gIKA7ARhG3RXUK38YRr30MjJbGEZ9ZOWVt/zn66+/Jr6L6GbLmjUrlSpVSqy+LVmypJtTYy4QUJIADKOSshibFAyjsdLqUxgMo9pabd68mRYtWiT297t+/boSyaZIkULs8Ve9enV66623lMgJSYCA2wRgGN0m7u/5YBj9rb8S1cMwKiHDE0nwO4d87ByfluLmPn5PJGHxlzx58ogTROrUqUO81QsaCPiFAAyjX5RWo04YRjV08HUWMIzqyH/69GlxDnNUVBT98ssv6iRmIRPe/qVRo0bUpEkT7AdogRe66E8AhlF/DXWqAIZRJ7UMzRWG0XtheU++yMhI+uijj7xPRkIGbBxbtWolVlxLCIcQIKAkARhGJWUxNikYRmOl1acwGEbvtOINm8eOHUv8Hx4TG5vGiIgI4nce0UDANAIwjKYpqnY9MIxq6+OL7GAYvZF50qRJNGbMGLp9+7Y3Cbg0K7/X2K1bN2rTpo1LM2IaEHCHAAyjO5wxy+8EYBjxTfCcAAyjuxKsW7eOhg4dSnv27HF3Yo9n48UxvXv3FtvyeJwKpgcBKQRgGKVgRBCLBGAYLYJCN+cIwDA6x/bxyHxO8IABA2jWrFmPf+y7n+vXr0/9+vUTp8z4rngUbBQBGEaj5FS+GBhG5SUyP0EYRuc1XrVqFfXt25fOnj3r/GQazJAqVSoaPHgwValSRYNskSIIxEwAhjFmLvjUGQIwjM5wRdQQCMAwhgArjK58N23y5MlhjDR/CK+mHjFiBMWKFcv8YlGhcQRgGI2TVOmCYBiVlscfycEwOqPzwYMHqUuXLrRjxw5nJjAkKr/byKaxQIEChlSEMvxCAIbRL0qrUScMoxo6+DoLGEb58i9YsECYxV9//VV+cEMjsmls3LixodWhLBMJwDCaqKq6NcEwqquNbzKDYZQrNb+bN2HCBLlBfRKNH1GPHDnSJ9WiTN0JwDDqrqBe+cMw6qWXkdnCMMqR9e7du9S6dWtavny5nIA+jVK0aFGaOHEipUmTxqcEULYuBGAYdVHKjDxhGM3QUesqYBjty3f8+HFxFN7evXvtB7MZIWHChMTvBb7yyiuUOXNmSps2LSVPnpwSJUpEzz33nFhgwub25s2bxCfNnD9/nvhowiNHjtD+/fuVOMM6Q4YMYqEQ3mu0+WXAcEcJwDA6ihfBoxGAYYwGBL+6TwCG0R7zrVu3UosWLejSpUv2AtkYXapUKSpRogQVLlyY8ubNayMS0c6dO2nz5s20YcMG2rhxo61YdgbHiROHpk6diq137EDEWEcJwDA6ihfBoxGAYYwGBL+6TwCGMXzmK1asoCZNmtCDBw/CDxLmyJIlS9K7775LlSpVosSJE4cZJfCw69evi0fsS5YsoU2bNgXu7NBVfqeR321EAwHVCMAwqqaI2fnAMJqtrxbVwTCGJxOvhG7fvn14g8McxY+VGzZsSHXq1KHs2bOHGSW8YYcPH6Z58+ZRVFQU3blzJ7wgYY7iIwU7duwY5mgMAwFnCMAwOsMVUWMmAMMYMxd86iIBGMbQYbNp6t69e+gDwxzB7yC2atVKPPpOkCBBmFHkDLt9+zZNmzZNPC6+du2anKAWokRERIjTcix0RRcQcIUADKMrmDHJfwnAMOKr4DkBGMbQJGCz1KdPn9AGhdk7duzYYj9HvpP5/PPPhxnFmWF8l5G3Dxo3bhzdv3/fmUmiRWXTPHDgwGif4lcQ8IYADKM33P06KwyjX5VXqG4YRutiuGkWa9euTT169KB06dJZT9CDnufOnaPRo0fT3LlzXZm9efPmNGTIEFfmwiQgEIgADGMgOrgmmwAMo2yiiBcyARhGa8hmzZolDJy13uH34u1w+PzpsmXLhh/Eg5HffPONuPvHRyI63XhVOm+QjgYCXhKAYfSSvv/mhmH0n+bKVQzDGFySOXPmUKdOnYJ3tNmjZcuWNGjQIJtRvB3u1kk3bdu2Fcba22oxu58JwDD6WX33a4dhdJ85ZoxGAIYxGpBovy5dupT4MaiTLXXq1MRnKZcvX97JaVyLzXs48uN03hDcyda5c2fq2bOnk1MgNgg8kwAM4zPR4IIDBGAYHYCKkKERgGF8Nq9169YRv0voZKtQoQKNGTOGUqRI4eQ0rsf+97//Td26daPPPvvM0bn58T3fbUQDAbcJwDC6Tdzf88Ew+lt/JaqHYYxZBj7mr1q1anTr1q2YO0j4tEuXLq68Fykh1bBDREZGUv/+/cMeb2UgG+769etb6Yo+ICCNAAyjNJQIZIEADKMFSOjiLAEYxqf5XrhwgapWrUqnT59++qKkT9hI1axZU1I0tcOsWbNGbHLOJ8c41XhvzIoVKzoVHnFB4CkCMIxPIcEHDhKAYXQQLkJbIwDD+DQnNot8RrQTLU2aNGLT6zfffNOJ8MrGPHr0KLVu3Zr27dvnSI7x48cnPsKwQIECjsRHUBCITgCGMToR/O4kARhGJ+kitiUCMIxPYmJTs2jRoic/lPRbvnz5iP8jkylTJkkR9QrD7zXyAqK1a9c6knj69Olp2bJllDZtWkfiIygIPE4AhvFxGvjZaQIwjE4TRvygBGAY/0A0bNgwGjt27B8fSPypePHixHs5Jk6cWGJUPUO1a9eOFi5c6Ejyb731ljCNjgRH0JAIbNu2jXbs2EEXL16kOHHiUIYMGYj1yZUrV0hxVO0Mw6iqMmbmBcNopq5aVQXD+Ltc8+bNow4dOjiiHa+E5nfsYsWK5Uh8HYP26tWLZsyY4UjqZcqUce3kGUcK0DzoggULaOLEiXTkyJEYKylatCh17NiR+B9ROjcYRp3V0y/3kAzj999/T7xy8/jx43Tz5k39qkXGShL46quvxHfKTnIjR46kRo0a2Qnh6djt27c7tmCC34fkIwXRniYwYMAAmjRp0tMXJHzCJn327NkSIiFEKATYCFo9JrJ3797COIYSX6W+Mgxjjhw5qFSpUiqVhVwcIsB32VOmTEmsOf9jiX8OpVkyjN999534P75PP/2Urly5Ekp89AUBVwjobBhv3LhBbC74H2KyW5UqVWj69OmywxoVj8+FHj9+vCM1NWnShIYPH+5IbAR9mkBERATNnz//6QsBPvnggw+IX1HQsckwjDrWjZztE8ibNy81btxYLATkBXtWWlDDyCaR36lyasWmlSTRBwSCEdDZMDr1Ph1v8cKPodGCE3DyOEE2MLiDE1wDuz0mTJgQ9vneq1atovz589tNwfXxMIyuIzduwqZNm4pjZ3Pnzh20toCGcfny5eJfXk7uBRc0Q3QAAQsEdDWMu3btorfffttChaF1YYMS6p2W0GYwrzffaZoyZYr0wpIlS0b8lCZp0qTSYyPg7wRWrlxJDRs2DBtHpUqVaObMmWGP92ogDKNX5M2al+808qs5CRIkCFjYMw3jpUuXqGXLlsTn2KKBgOoEdDWMfKzc5MmTpeLlfQD5OLxg/+OXOqkhwbp37+7IXVksgnHuC3Lw4EFiw3f79m1bkxw6dIiSJ09uK4bbg2EY3SZu7nyjRo2irl27BizwmYaRVw82a9Ys4GBcBAFVCOhqGMuXL087d+6UhjFbtmy0ePFiSpUqlbSYfgvUqlUrwVB23XwHjP9PGU0eAd5Xk83igQMHbAf9+OOPHbnbbzuxAAFgGAPAwaWQCPBCmNWrV1PGjBmfOe6ZhpGPDHNq8+BnZoMLIBAmAV0NY548eejy5cthVv3kMH7k+fnnnxuzx9yT1bn7W61atWj9+vXSJ+U7mMH+FS99UoMD1qtXj/jYRxltxIgRYhGAjFhuxYBhdIu0P+bhd94Dvdrx/wAAAP//mbuvIgAALUJJREFU7Z0HlBVFFobvwJARECQsCJIls2QkM+ScwxJHMhIlSc5BQYLACiyo5AySkSASXQ4IuCTJWRAkSJCwpN3bu6Mw89680NXdVdV/ncOBeV11697vf+Bvd1dVyMv/NorUHjx4QGnSpKF79+5FuoIfQUBOAmPHjqXw8HA5k4smq9y5c9P169ej6eH/pSVLllDZsmX9H4CeXgncvXuX6tSpQ0ePHvXaJ9gL48aNo5YtWwY7HOP+T6BXr140d+5cYTxU/DfkH//4Bw0cOFAYAwRyN4HevXsT/z3w1kI8GcazZ89S5syZvY3B5yAgHQEV/7FniNWqVaP9+/eb5jlx4kRq2rSp6TgI8CeB06dPU82aNenWrVt/fijoT/wf+tq1awuK5r4wY8aMIf7Oi2wLFy6k8uXLiwxpeSwYRssRu2qCZs2a0bx587zW7NEwnjt3jjJlyuR1EC6AgGwEVDWMI0eOpMmTJ5vC2b17d+rfv7+pGBjsmcD27dupYcOGni+a/HTx4sUUFhZmMor7hk+bNo2GDBkivPAzZ85QokSJhMe1MiAMo5V03Re7RYsWNGfOHK+FezSMjx8/pnTp0tGvv/7qdSAugIBMBFQ1jMePH6cyZcoEjbJWrVo0c+bMoMdjoG8CzHfAgAG+OwbYI3bs2MSvERQvXjzAke7tznc/evbsKRxAvXr1iI2oag2GUTXF5M6XbzyMGjXKa5IeDSP3bt68Oc2fP9/rQFwAAZkIqGoYmSG/NxLd/9V545wjRw7auHEjxYsXz1sXfC6IAD+a3rt3r6Bof4Z54403iB+FFilS5M8P8SePBNhcd+nSxeM1sx/u2LGDsmfPbjaM7eNhGG1HrvWEixYtosaNG3ut0ath5IFNmjTxOhAXQEAmAiobxmfPnlGNGjXowIEDfiNNkCABrV69mvLkyeP3GHQ0R0DkAqVXM0mcODEtWLCAChcu/OrH+PMrBJYvX04ffPDBK5+I+6PK/3bAMIr7Hrg9UoECBWj9+vWUMmVKryi8Gsb79+9Tx44djX/IvI7GBRCQhIDK/+gzQl5Y0aFDB+I7Hb4avy4ydepUKlq0qK+uuC6QAP+bmC9fPkt2j0iYMKHxsjkeT0cVbOnSpdS5c+eoFwR80rZt22gfwQmYwtIQMIyW4nVN8NDQUJoyZYrx36DoivZqGHnQrl27iF+oP3jwYHQxcA0EHCegumGMADh9+nTjncTLly9HfPTH7/zombdj6dOnD7HBQLOfwOHDh6ly5crEd4VFt1ixYtHs2bOpQoUKokMrG4/vvH744YeW5M/vDrMZVbnBMKqsnjy589+xCRMm+EwoWsPIo7ds2UKfffaZcavSZzR0AAGHCOhiGCPw8ftyx44dozt37hA/fs6SJQuVLl2a2FSgOUtg3bp11KpVK8uS+Pzzz6l+/fqWxVclsFWrobn+DBkyGP9Ne+utt1TB4TFPGEaPWPChnwT4HWp+ssXvBqdNm9bnKJ+GkSPwdgP8f3r8HokVG9n6zBIdQMAHAd0Mo49ycdlhAnwnePDgwZZlMWLECGrfvr1l8WUPbMU+ixE1x4wZk9auXUsFCxaM+EjZ32EYlZXO8cT5SQnvuxjI/r1+GcaIys6fP0+8DQhv7P3w4cOIj/E7CJgiwAus+FGfmQbDaIYexgZDYOjQocR3A61q/A75sGHDrAovbVx+PMY3KKxqs2bNMjZktyq+nXFFGMb8+fNTgwYN7EwbczlEICQkhFKkSGHss12yZEninwNpARnGQAKjLwj4S+Bvf/sb8SbGZhoMoxl6GBssAV6MYeV7cNWrVzdeRufXEnRvfERmp06daOfOnZaVqtudWxGGkd+L5ndn0UDAFwEYRl+EcN1yAjCMliPGBBYS4O3Htm7datkM2bJlo0mTJhHfCdK17d69m7p27UpXrlyxrMRu3bpZsgG7ZQn7ERiG0Q9I6CKMAAyjMJQIFCwBGMZgyWGcDAT4ZCxepLJv3z5L0xk3bpyxSt7SSRwIbvX7oFwSH0Qxfvx4B6qzdkoYRmv5IvrrBGAYX+eBnxwgAMPoAHRMKZQAH6PKZ07zynYrG8/BC0J4daPq7fbt29S3b19atWqVpaXUqVOHZsyYYekcTgWHYXSKvDvnhWF0p+5SVQ3DKJUcSCZIArx3ZqNGjYxdJYIM4dewt99+m/hdvGrVqvnVX8ZOa9asMR4P83uLVraKFStqfcQtDKOV3x7EjkwAhjEyEfxsOwEYRtuRY0KLCPAOEvxOI+8oYXXjeQYMGEDJkye3eiph8W/cuEEjR440vcjNn4R4Y25eTBcjRgx/uivZB4ZRSdmUTRqGUVnp9EkchlEfLVEJ0enTp429zS5cuGA5Dn40zSf/qLBn48yZM43H6Q8ePLCcS6lSpYyteeLEiWP5XE5OAMPoJH33zQ3D6D7NpasYhlE6SZCQSQLnzp0zFlqwebSj5cqVy1hlXLt2bTumC2gO3iSbV3kfOXIkoHHBduYTkebPn0+6m0XmA8MY7LcE44IhAMMYDDWMEUoAhlEoTgSThAC/0xgeHm6bUeKyCxUqRO3ataNatWo5ToGPUGRDw8dc2tX4HO65c+cSn+bihgbD6AaV5akRhlEeLVybCQyja6XXvnBeCcym0U7TxFB570Y+9ov/btm5opq3GOKTm+bNm2f7MbJ8d5UNlJsaDKOb1Ha+VhhG5zVwfQYwjK7/CmgN4NmzZ9S2bVtav3697XXynba6detSjRo1iM+Otap9++23xvnMK1euJDaNdjdd91n0xRGG0RchXBdJAIZRJE3ECooADGNQ2DBIMQI9e/Y07rw5lTYfLxgWFkYlSpSgwoULU86cOYNO5eTJk8ZG5Xv27CE2i3fv3g06ltmBfPZ0v379zIZRcjwMo5KyKZs0DKOy0umTOAyjPlqikugJTJw40VgpHH0ve66ygWTTmClTJkqXLh2lSpWKkiRJQvHjx6fQ0FB6/vw5PXr0iO7cuUO8XyK/k8mLeXhzcicN4qt0Ro8eTW3atHn1I1f9GYbRVXI7XiwMo+MSIAEYRnwH3ERg2bJl1KVLF3rx4oWbyhZaK7+X+fnnn1OlSpWExlUtGAyjaoqpnS8Mo9r6aZE9DKMWMqKIAAgcOnTIMI2nTp0KYBS6MoH8+fPT5MmTKWvWrK4HAsPo+q+ArQBgGG3Fjck8EYBh9EQFn+lO4OHDh9SjRw/ihSJo/hHg0234sX5ISIh/AzTvBcOoucCSlQfDKJkgbkwHhtGNqqPmCAL8aHXo0KERP+J3LwTGjBlDrVu39nLVnR/DMLpTd6eqhmF0ijzm/YMADOMfKPAHlxLYt2+fsdLXrtNQVMLMj6A/+eQTyps3r0pp25IrDKMtmDHJ/wnAMOKr4DgBGEbHJUACkhDgO418xxHtfwS6du1KAwcOBA4vBGAYvYDBx5YQgGG0BCuCBkIAhjEQWuirO4GdO3fSsGHDbD1SUDamf/3rX2nIkCFUvHhx2VKTKh8YRqnk0D4ZGEbtJZa/QBhG+TVChvYTkGnPRruq58UsvAl39+7d7ZpS6XlgGJWWT7nkYRiVk0y/hGEY9dMUFYkhcOHCBRo3bhzx3o26twYNGlCvXr0oQ4YMupcqrD4YRmEoEcgPAjCMfkBCF2sJwDBayxfR1SfAR/Dx3oPfffed+sVEqqB06dLGnpSlSpWKdAU/+iIAw+iLEK6LJADDKJImYgVFAIYxKGwY5EICmzdvphkzZtCuXbuUr75YsWLUvn17qlKlivK1OFUADKNT5N05LwyjO3WXqmoYRqnkQDIKENi+fTvNmTOH1q9fr0C2r6dYsWJFCg8Pp/Lly79+AT8FTACGMWBkGGCCAAyjCXgYKoYADKMYjojiPgInT56kRYsW0eLFi+n27dvSAuCznxs3bkz8dz1XrlzS5qlaYjCMqimmdr4wjGrrp0X2MIxayIgiHCawatUqWrNmjXHX8eXLlw5n87/pK1WqRLVq1aK6detSjBgxpMhJpyRgGHVSU/5aYBjl10j7DGEYtZcYBdpI4MGDB7RlyxbaunUr8Z6O169ft232ZMmSES9eKVeuHFWoUIHefPNN2+Z240QwjG5U3bmaYRidY4+Z/08AhhFfBRCwjgAfN7h//346cOCAsRn4iRMnhE2WOXNmyp07NxUoUIAKFSpE+fLlExYbgXwTgGH0zQg9xBGAYRTHEpGCJADDGCQ4DAOBIAg8fvyYzpw5Q+fOnaMrV67QtWvX6ObNm3Tnzh16+PAh8fWIR9px48alePHiUdKkSY1fqVOnpjRp0lDGjBmJzWKCBAmCyABDRBGAYRRFEnH8IQDD6A8l9LGUAAyjpXgRHARAQFMCMIyaCitpWTCMkgrjprRgGPVS+8WLF3Tx4kW6evUq3bhxw7hzde/ePePO1dOnT41iY8WKRXz3KnHixMZ7bilTpiS+e/XOO+/oBQPVgICFBGAYLYSL0FEIwDBGQYIP7CYAw2g3cXHz3b1713g37tChQ3Ts2DH66aef6OzZs0FPEDNmTONxZ44cOShnzpzGO3H8flzChAmDjomBIKArARhGXZWVsy4YRjl1cVVWMIxqyc3H1G3bto12795NbBTtaLygokSJElS2bFkqWrSoHVNiDhCQngAMo/QSaZUgDKNWcqpZDAyj/LqxQeRTRTZs2EC3bt1yNOEUKVJQ1apVqVq1asTnEKOBgFsJwDC6VXln6oZhdIY7Zn2FAAzjKzAk+uOlS5eMU0SWL19uvJMoUWp/pMKrdevXr2+cIMKrd9FAwE0EYBjdpLbztcIwOq+B6zOAYZTrK/D999/T7NmziU8OUanVq1fPOKO4SJEiKqWNXEEgaAIwjEGjw8AgCMAwBgENQ8QSgGEUyzPYaHwyCP8HaPv27cGGkGIcv+fYvn17CgsLkyIfJAECVhGAYbSKLOJ6IgDD6IkKPrOVAAyjrbijTLZr1y6aMmWK8kYxcmFsHLt06WIslol8Teaf+Wi/iA20Q0NDje2GZM4XuTlHAIbROfZunBmG0Y2qS1YzDKMzgpw+fZrGjx9PK1eudCYBm2atXbs29e7dm7JkyWLTjMFNw+c/86+9e/dSxPF9vJ1Qrly5jLOZa9asSRkyZAguOEZpSQCGUUtZpS0KhlFaadyTGAyj/VqPHTuWPv30U/sndnDG7t27U//+/R3MwPPUJ0+epHnz5tGyZcuMTc499yLjzOYWLVpQy5YtvXXB5y4jAMPoMsEdLheG0WEBMD0ZK1wXL15sCgUboPDwcFMx3DB48+bNNHz4cDp16pQbyo1SY6ZMmWjQoEHGtjxRLjrwAZ+IM2rUKL8XGPHpOB999BF16tTJgWwxpWwEYBhlU0TvfGAY9dZXiepwh9F6mfhIvoEDB9JXX31l/WQKzNC0aVMaMWKEoyfI/PzzzzRu3DhauHBhQMTeeOMNGjNmDDVs2DCgceisHwEYRv00lbkiGEaZ1XFJbjCM1grNq575UeyZM2esnUix6GnTpqWRI0dSlSpVbM/83//+tzH39OnTg5qbT72ZO3euo4Y3qMQxSCgBGEahOBHMBwEYRh+AcNl6AjCM1jF247uKgdLkldT8mNqu9uLFC2OxEd9dNNP+/ve/U4MGDcyEwFjFCcAwKi6gYunDMCommI7pwjCKV/XGjRvUo0cP4ncW0XwTKF68OE2YMMGWVcgzZswQYlB5AYzbFi75VtJdPWAY3aW309XCMDqtAObHohfB3wHeV7Fr167E78ih+U8gceLENGnSJOOMav9HBdZz0aJFxiIXNvRm23vvvUerV682GwbjFSYAw6iweAqmDsOooGi6pYw7jOIU5UUtvIoWLXgCAwYMoG7dugUfwMvItWvX0pAhQ+jKlSteegT2cdasWWn37t2BDUJvrQjAMGolp/TFwDBKL5H+CcIwitGYt8uZOnWqmGACovBq3vTp01OaNGkoadKkxD/HiRPHiPzkyRO6d+8e3bp1i65evUrnz5+n33//XcCsYkLwKuqJEyeKCfbfKDt27KDRo0fToUOHhMUsVKgQrV+/Xlg8BFKPAAyjepqpnDEMo8rqaZI7DKN5ITt27EgrVqwwH8hEhAIFChA/Ji1YsKCxyTSvQg6kXbhwgY4cOUI//PADff/99/Svf/0rkOHC+5YpU4Z4FTObXTPt4MGDxt6XXJPI1rZtW+PxtsiYiKUWARhGtfRSPVsYRtUV1CB/GMbgRbx79y61bt2adu7cGXwQEyMrVKhA1atXp/Lly1Py5MlNRIo69Nq1a7R161bjLtq2bduidrDhkxw5ctCsWbMoc+bMQc3Gxy/ynonr1q0Lanx0g/j1g2rVqkXXBdc0JwDDqLnAkpUHwyiZIG5MB4YxONX5Xbj333/f9jtxGTNmNBYq8ZYuqVOnDi75AEdxrUuXLiVeNMKno9jZUqZMSV988QUVLlw4oGnZ8PJj6CVLlgQ0zp/OvHfklClTKFGiRP50Rx9NCcAwaiqspGXBMEoqjJvSgmEMXG0+2o+3VTl37lzgg4McwY+c+TFo3bp1g4wgZhifucx3/US+D+grs3jx4tHs2bOpbNmyvroa1/l9zI8//ph4Cx3RLUmSJMZq7qpVq4oOjXiKEYBhVEwwxdOFYVRcQB3Sh2EMTMWjR48aZlHUaltfs+fOndvYpqdWrVq+utp6fdWqVTR58mRiHnY1Pl2lcuXKPqezasN0vqPIq7j5zjIaCMAw4jtgJwEYRjtpYy6PBGAYPWLx+CGbI17By487rW7JkiWj3r17U6tWrayeylT8L7/80tjA+ubNm6bi+DuYH0/XqFHDa/dp06bR0KFD6eXLl177BHuBzwPnPTbRQIAJwDDie2AnARhGO2ljLo8EYBg9Yony4fHjx413B+0wi3wHi8+f5s2sVWgPHjwwVgyzmbOjeVtwsnDhQsMs/vbbb8LTYKPYs2dP4sfjaCDABGAY8T2wkwAMo520MZdHAjCMHrG89uHZs2epUaNGdOnSpdc+F/0DbwbN+zmGhYWJDm1LPN7vcNiwYbY8po78eJpPXRkxYoQlGoWHhxvHCfJelmggEEEAhjGCBH63gwAMox2UMUe0BGAYo8VDv/zyC9WvX594oYuVje8q8qremDFjWjmNLbEHDx5s7KFo9WS8cpv3a+Rtjdio8j6SohsvMuLTezJkyCA6NOIpTgCGUXEBFUsfhlExwXRMF4bRu6q82pbN4oEDB7x3MnmFH3GOHz/emMdkKKmG896Hffr0ISvfbYwbN65xV5EX4OzZs0d4/bzP5aBBgyhbtmzCYyOg+gRgGNXXUKUKYBhVUkvTXGEYvQvLbL799lvvHUxe4VNZ+Ai8d99912QkOYfzSvIePXrQ9u3bLUuQjzvkow5FN973kd8jLVasmOjQiKcJARhGTYRUpAwYRkWE0jlNGEbP6nbq1Il4z0GrGnP/7LPPrAovVVzeimbmzJlS5RRdMnxHcciQIVSuXLnouuGaywnAMLr8C2Bz+TCMNgPHdFEJwDBGZcKLJ/gkD6sab5fDv9zUeLNvvmMne/vLX/5iPIbmVxHQQCA6AjCM0dHBNdEEYBhFE0W8gAnAML6OzGpjM2HCBGrWrNnrk7rkp2+++YbatWtHjx8/lrLiBAkSGNvytGzZUsr8kJRcBGAY5dJD92xgGHVXWIH6YBj/FGnz5s2WmTle/cybXPM5xG5uvICoTZs29PPPP0uHgRe4dOnSRbq8VE6IdeadBvj7nzZtWuIN6XVpMIy6KKlGHTCMauikdZYwjP+T9+TJk1S9enW6e/eucL15A27ebLpEiRLCY6sYkM/g5m2EfvrpJ2nS79atm7F9TmhoqDQ5qZrI7du3jW2Vvv76a7p48eJrZeTJk4caNmxo3Gl+7YKCP8AwKiiawinDMCosni6pwzASvXjxwrjzd+jQIeGyJk+enHiT6QIFCgiPrXLA69evG2dyW8E8UC58/GLfvn0pSZIkgQ5F/0gEVq5cabD0ddpOrly5jCMl8+fPHymCOj/CMKqjlQ6ZwjDqoKLiNcAwEnXu3Jl4E2jRLUWKFLRgwQLKmzev6NBaxLtz5w41b96c9u3b51g9vDE3r+Lmx6Vo5gjMmzfPOD7R3yi8B+mSJUuoaNGi/g6Rqh8Mo1RyaJ8MDKP2EstfoNsN47Rp04wtVEQrlTRpUuM/hjCL0ZPlVwCaNGlC+/fvj76jBVcrV65M/fr1o+zZs1sQ3V0hd+/eTWy+A23p06c3TurhTdhVazCMqimmdr4wjGrrp0X2bjaM/NiM36kSvWo3YcKEhlksVKiQFt8Rq4tgHfisbjsfT7M2fIRhkSJFrC5P+/i8qKVq1arEG7UH0/j9Ub7Lq1qDYVRNMbXzhWFUWz8tsnezYbTq7mLEGcdafEFsKoJNB5tGOxbC5M6d29gTEhtzixG3QYMGtGPHjqCD8d34EydOBD3eqYEwjE6Rd+e8MIzu1F2qqt1sGBs3bkzbtm0TqscXX3xBNWrUEBrTLcF49XS9evUs3XInZcqUNHz4cKpTp45bsFpaZ69evYxFXWYnWbNmjXLvMsIwmlUd4wMhAMMYCC30tYSAmw0jr1y+fPmyMK7jxo0jbPpsDufBgwcNw/306VNzgTyM5lcFhg4daqzO9nAZHwVIYNKkSTR69OgAR3nuzmeqN23a1PNFST+FYZRUGE3TgmHUVFiVynKzYcyRIwfdvHlTiFxuPO5PCLhIQaZOnWrcAYz0sZAfeVXuxo0biXVHM0eAVzeL3OR8zJgx1Lp1a3NJ2TwahtFm4C6fDobR5V8AGcp3s2EsVaqUkHen+Kg/PvIPzRwB3paF7wDev3/fXKBoRmfOnJlWrFhBfGY0WnAEtm7daqxsD26051FsvmrXru35oqSfwjBKKoymacEwaiqsSmW52TB27dqVFi9ebEqukiVLGgbEVBAMJt7wecSIEZa+vxiBmV9FWL58OfHZ0WiBEeCjHfk904cPHwY20Efvf/7zn5QpUyYfveS6DMMolx66ZwPDqLvCCtTnZsPIjyfNvHPImz2vX7+eUqVKpYDS8qb43Xff0bBhw+j48eO2Jcl3l/mxKp9xjOYfgVOnTlH9+vWNs6H9G+FfLzbw/HdRtQbDqJpiaucLw6i2flpk72bDyAJWq1Yt6E2j+azc4sWLa/E9cKqIvXv3Ggsn+He7W4UKFYyTeOyeV8X5+Exo3vaIV7KLbjNmzFBy1ToMo+hvAuJFRwCGMTo6uGYLAbcbxh9++MHYdDhQ2GPHjqXw8PBAh6H/KwT4jhU/ht60adMrn9r7x0qVKhG/O4nmnQBvyM2n8VixVyKb0ClTpnifXOIrMIwSi6NhajCMGoqqWkluN4ys19q1awNaodm3b1/q0aOHalJLle+FCxeITTe/S+h04zuNbBpjxIjhdCrSzc9mkbe7sWJDdX4UvWHDBgoJCZGubn8SgmH0hxL6iCIAwyiKJOIETQCG8X/ofvzxR2M7Fz4T11vLmDGjcUJIzZo1vXXB534Q+P333407i19++aUfve3pUqZMGZo9ezbFjx/fngkVmIUfP7do0YL4TrDolihRIsMsZs2aVXRo2+LBMNqGGhP9lwAMI74GjhOAYXxdgp07dxqPSI8cOUJ37twxDMS7775LYWFhym378Xplcvz05MkTGj9+PPGmz7I1Pl+aT+rBIiaiw4cP0/vvvy90Y/tX9Z47dy5Vrlz51Y+U+zMMo3KSKZ0wDKPS8umRPAyjHjqqUgW/r8bvLcraeGuXWbNmUc6cOWVN0fK8du3aRW3atDH+h8mKyVj/9u3bWxHa1pgwjLbidv1kMIyu/wo4DwCG0XkN3JLBnDlzaNSoUfTbb79JXXLixIlp2rRpVL58eanztCI53g+zQ4cOVoQ2YrJRlPl/GAIpHIYxEFroa5YADKNZghhvmgAMo2mECOAHATYigwcPphs3bvjRW44ublsJP3nyZBo5cqRl8PndX757q0uDYdRFSTXqgGFUQyets4Rh1FpeKYrjo+RGjx5NR48eFZ5PrFix6OnTp8LjRgTU6Y5YRE2efv/www8t3ZOyWLFixmk+Oq1Eh2H09E3CZ1YRgGG0iizi+k0AhtFvVOgYBAHekHv48OHE+12KblWrVqWKFStS9+7dRYd+LR4f/8hnhb/zzjuvfa7DD7y3Ys+ePYPevN4fBrxojDe5f+utt/zprkwfGEZlpNIiURhGLWRUuwgYRrX1kzl7PupvzJgxlmzMXbRoUeMRd8GCBWndunXUqlUrS1HwNjD8iLpu3bqWzmNn8EWLFlGfPn2IV65b1VKnTk3Lli2jLFmyWDWFY3FhGB1D78qJYRhdKbtcRcMwyqWHLtlcunTJWODCd5ZEt7x58xr7YZYtW/aP0LwB+AcffPDHz1b9gfcl5Pf84saNa9UUlsd98OABDRw4kBYuXGjpXGyy2Szmy5fP0nmcCg7D6BR5d84Lw+hO3aWqGoZRKjm0SIZXQX/88cdkxcbcfMeKH3F72jx9wYIFxO/iWd3SpUtHQ4YMoRo1alg9lfD4a9asoaFDhxKf4GJlY0O9ZMkSeu+996ycxtHYMIyO4nfd5DCMrpNcvoJhGOXTROWMeAHKJ598QrziVnTjd+AGDBhgHFXnLTYf8cfv5NnR+PH0Rx99RBkyZLBjOlNz8FGM/HqAFXd8IyfGC5H47mXp0qUjX9LqZxhGreSUvhgYRukl0j9BGEb9NbazQiu3Zhk2bBh17NjRZznz58+39axvPle8W7duFC9ePJ+52d2B30/kU3X4dB07mlvMIrOEYbTjG4U5IgjAMEaQwO+OEYBhdAy9dhPzWcz8uPPhw4fCa+vVq5dhAkNDQ/2KzY9Du3Tp4ldfEZ2SJk1KnTp1onbt2lGcOHFEhDQV4/nz5zRjxgyaOnUq3bx501QsfwcnSJCA+A5viRIl/B2idD8YRqXlUy55GEblJNMvYRhG/TR1oiJedMLvFv7yyy/Cp2cTxos0Al1osnbtWmrdurXwfKIL+Oabb1J4eDjx4pg0adJE19WSa8yfTdtXX31lm1HkQpInT27MWbhwYUvqkjEoDKOMquibEwyjvtoqUxkMozJSSZsob8zNj4tPnjwpPMfGjRsbW7+8/fbbQcXesWOHcS7y3bt3gxpvZhAvzOH3HHm/SKvbli1bjI2xV6xYYfVUUeJnzJjRMIvZs2ePck3nD2AYdVZXvtpgGOXTxHUZwTC6TnKhBe/Zs8c4xWX//v1C43IwNlp8nCAbEjPtyJEjhmk8f/68mTBBj02SJAlVrlyZypUrZzyuTZYsWdCxIgayAWb2bNY3bdpEv/76a8QlW3/nfTBnzpzpyN1UWwv1MBkMowco+MgyAjCMlqFFYH8JwDD6Swr9IhN4+fKlsQiFz4kW3fg9uH79+lGhQoWEhOZHtbxghk2W043vxPHehDlz5qRMmTIZJ8ikSpWK+B3AyI3fB71+/TpdvnyZzpw5Q7wZ+o8//kiHDx+O3NX2n6tUqWKYxdixY9s+twwTwjDKoIJ7coBhdI/W0lYKwyitNNInxo8//Vm1HGghefLkMe4slipVKtChPvt37tyZli5d6rOfEx3YeMWPH59ixoxJvGjl8ePHxi8ncvE1J79XyhuYu7nBMLpZfftrh2G0nzlmjEQAhjESEPzoN4EOHToY7835PcCPjnxe86BBgzxuzO3HcL+68DYzo0eP9qsvOkUlMGrUKGrbtm3UCy77BIbRZYI7XC4Mo8MCYHoiGEZ8C4IhwKe5VKhQgS5evBjMcI9jeIUxb8vD30mr24YNG4xtem7fvm31VNrE51N22GyXKVNGm5rMFALDaIYexgZKAIYxUGLoL5wADKNwpK4IeOPGDcqVK5ewWkNCQoyV1nzX0q7G513zqTC8khotegKVKlWiCRMmGNvnRN/TPVdhGN2jtQyVwjDKoILLc4BhdPkXIMjyeSFG7ty5gxwddVjv3r2JfznR+ChDu05CcaI+s3Py4iM7zug2m6fd42EY7Sbu7vlgGN2tvxTVwzBKIYNySfDpIWFhYUI26ua7in379jUWfDgFYufOncbm4CdOnHAqBenm5TvIvLClWLFi0uUmQ0IwjDKo4J4cYBjdo7W0lcIwSiuN9InxaSbffPONqTx5Y+7+/fsTbyvjdONtgvgdymnTpjmdiuPz8zGHQ4YMcTwPmROAYZRZHf1yg2HUT1PlKoJhVE4yaRLmI+j4HcBgW40aNYy9FjNnzhxsCEvGWbkZuSUJCwzKR/uxgcddRd9QYRh9M0IPcQRgGMWxRKQgCcAwBgkOw+j+/fvUvn1747SRQHEUL17c2D4nf/78gQ61rT8bgk8//ZR4RbjuLXHixMY7pLy/Ipp/BGAY/eOEXmIIwDCK4YgoJgjAMJqAh6G0ceNG4z2306dP+02Dj5Pjdxat2Jjb7yT87MhH8PGCmOnTp/s5Qr1ubPr5TjEfYYjmPwEYRv9Zoad5AjCM5hkigkkCMIwmAWI4rV+/niZOnOjXcXV8JB6bk4oVKypFjs+hnjJlCs2fP1+pvKNLtkmTJtSlSxfjeMLo+uGaZwIwjJ654FNrCMAwWsMVUQMgAMMYACx09Upg79699PXXX9OmTZvo6tWrUfqlTJmS6tatSw0aNBC6f2OUiSz+4OzZs8RGYfbs2cSLZFRszZs3N14lyJo1q4rpS5MzDKM0UrgiERhGV8gsd5EwjHLro1p2R44cMe408iNqfseR343jRS1FixaljBkzqlaO13xv3bpFc+fOpYULFwo97cbrhCYvpEmTxjhBp2XLlsTmHc08ARhG8wwRwX8CMIz+s0JPiwjAMFoEFmFdQ4Df41y5ciWtXr1aupqrVatm3NnlFeloYgnAMIrliWjRE4BhjJ4PrtpAAIbRBsiYwhUE+I4qv8+5efNmY+X448ePba87NDSUypcvb5zzXb16deLzudGsIQDDaA1XRPVMAIbRMxd8aiMBGEYbYWMq1xB48eIF7d692/i1b98+OnDgAD158kR4/TFjxqQCBQpQoUKFqESJElSyZEmKHTu28HkQMCoBGMaoTPCJdQRgGK1ji8h+EoBh9BMUuoGASQJHjx6lY8eO0ZkzZ+jcuXN0+fJlunbtGvExi8+fP/caPSQkhJIlS0apU6cmfhcxU6ZMxnuhOXPmNBYQsWlEs58ADKP9zN08Iwyjm9WXpHYYRkmEQBquJsD7PT569Mj4FQEibty4xL/wWDmCiFy/wzDKpYfu2cAw6q6wAvXBMCogElIEARCQjgAMo3SSaJ0QDKPW8qpRHAyjGjohSxAAAbkIwDDKpYfu2cAw6q6wAvXBMCogElIEARCQjgAMo3SSaJ0QDKPW8qpRHAyjGjohSxAAAbkIwDDKpYfu2cAw6q6wAvXBMCogElIEARCQjgAMo3SSaJ0QDKPW8qpRHAyjGjohSxAAAbkIwDDKpYfu2cAw6q6wAvXBMCogElIEARCQjgAMo3SSaJ0QDKPW8qpRHAyjGjohSxAAAbkIwDDKpYfu2cAw6q6wAvXBMCogElIEARCQjgAMo3SSaJ0QDKPW8qpRHAyjGjohSxAAAbkIwDDKpYfu2cAw6q6wAvXBMCogElIEARCQjgAMo3SSaJ0QDKPW8qpRHAyjGjohSxAAAbkIwDDKpYfu2cAw6q6wAvXBMCogElIEARCQjgAMo3SSaJ0QDKPW8qpRHAyjGjohSxAAAbkIwDDKpYfu2cAw6q6wAvXBMCogElIEARCQjgAMo3SSaJ0QDKPW8qpRHAyjGjohSxAAAbkIwDDKpYfu2cAw6q6wAvXBMCogElIEARCQjgAMo3SSaJ0QDKPW8qpRHAyjGjohSxAAAbkIwDDKpYfu2cAw6q6wAvXBMCogElIEARCQjgAMo3SSaJ0QDKPW8qpRHAyjGjohSxAAAbkIwDDKpYfu2cAw6q6wAvXBMCogElIEARCQjgAMo3SSaJ0QDKPW8qpRHAyjGjohSxAAAbkIwDDKpYfu2cAw6q6wAvXBMCogElIEARCQjgAMo3SSaJ0QDKPW8qpRHAyjGjohSxAAAbkIwDDKpYfu2cAw6q6wAvXBMCogElIEARCQjgAMo3SSaJ0QDKPW8qpRHAyjGjohSxAAAbkIwDDKpYfu2cAw6q6wAvXBMCogElIEARCQjgAMo3SSaJ0QDKPW8qpRHAyjGjohSxAAAbkIwDDKpYfu2cAw6q6wAvXBMCogElIEARCQjgAMo3SSaJ0QDKPW8qpRHAyjGjohSxAAAbkIwDDKpYfu2cAw6q6wAvXBMCogElIEARCQjgAMo3SSaJ0QDKPW8qpRHAyjGjohSxAAAbkIwDDKpYfu2cAw6q6wAvXBMCogElIEARCQjgAMo3SSaJ0QDKPW8qpRHAyjGjohSxAAAbkIwDDKpYfu2cAw6q6wAvXBMCogElIEARCQjgAMo3SSaJ0QDKPW8qpRHAyjGjohSxAAAbkIwDDKpYfu2cAw6q6wAvWJMIxcZmhoqALVIkUQAAEQEEPg2bNnpgO1bNmSZs+ebToOAuhPAIZRf42lr1CUYZS+UCQIAiAAApIRgGGUTBCJ04FhlFgct6QGw+gWpVEnCICAbARgGGVTRN58YBjl1cY1mcEwukZqFAoCICAZARhGyQSROB0YRonFcUtqMIxuURp1ggAIyEYAhlE2ReTNB4ZRXm1ckxkMo2ukRqEgAAKSEYBhlEwQidOBYZRYHLekBsPoFqVRJwiAgGwEYBhlU0TefGAY5dXGNZnBMLpGahQKAiAgGQEYRskEkTgdGEaJxXFLajCMblEadYIACMhGAIZRNkXkzQeGUV5tXJNZu3btaObMma6pF4WCAAiAgCwEOnfuTFOmTJElHeQhMQEYRonFcUtqkydPpm7durmlXNQJAiAAAtIQmD59OrVv316afJCIvARgGOXVxjWZnTx5krJly+aaelEoCIAACMhC4Pz585Q+fXpZ0kEeEhOAYZRYHDel1qhRI1q6dKmbSkatIAACIOAogWbNmtG8efMczQGTq0MAhlEdrbTO9NSpU5QvXz56+PCh1nWiOBAAARCQgUCSJEno0KFDuLsogxiK5ADDqIhQbkhz9erVVLt2bTeUihpBAARAwDECISEhtG7dOqpatapjOWBi9QjAMKqnmdYZ79ixg7p27UqHDx/Wuk4UBwIgAAJOEMifP7+xKrpYsWJOTI85FSYAw6iweDqnztvs8DuNe/bsoUePHulcKmoDARAAAUsJxI8fn0qUKEH8rnirVq0snQvB9SUAw6ivttpUduvWLXrx4oU29aAQEAABELCLQIwYMShZsmR2TYd5NCYAw6ixuCgNBEAABEAABEAABEQQgGEUQRExQAAEQAAEQAAEQEBjAjCMGouL0kAABEAABEAABEBABAEYRhEUEQMEQAAEQAAEQAAENCYAw6ixuCgNBEAABEAABEAABEQQgGEUQRExQAAEQAAEQAAEQEBjAjCMGouL0kAABEAABEAABEBABAEYRhEUEQMEQAAEQAAEQAAENCYAw6ixuCgNBEAABEAABEAABEQQ+A9sCwbxw0zBQQAAAABJRU5ErkJggg==;" vertex="1" parent="WIyWlLk6GJQsqaUBKTNV-1">
          <mxGeometry x="600" y="663.3" width="75.26" height="43.4" as="geometry" />
        </mxCell>
        <mxCell id="sJofw-jmUaGOBElZEfz2-76" value="Threshold" style="text;html=1;align=center;verticalAlign=middle;resizable=0;points=[];autosize=1;strokeColor=none;fillColor=none;fontFamily=Helvetica;fontSize=12;fontColor=default;" vertex="1" parent="WIyWlLk6GJQsqaUBKTNV-1">
          <mxGeometry x="597.63" y="700" width="80" height="30" as="geometry" />
        </mxCell>
      </root>
    </mxGraphModel>
  </diagram>
</mxfile>
